{
	"asset":{
		"generator":"Khronos glTF Blender I/O v5.0.21",
		"version":"2.0"
	},
	"scene":0,
	"scenes":[
		{
			"name":"Scene",
			"nodes":[
				69
			]
		}
	],
	"nodes":[
		{
			"name":"root",
			"rotation":[
				-0.6939865946769714,
				-0.13558241724967957,
				-0.13558241724967957,
				0.6939865946769714
			],
			"translation":[
				-0.02132415771484375,
				-0.0014628767967224121,
				0.05249166488647461
			]
		},
		{
			"name":"DEF-Chest",
			"rotation":[
				-0.011091121472418308,
				2.0117435894917435e-07,
				-6.350308723312992e-09,
				0.9999384880065918
			],
			"scale":[
				1,
				0.9999999403953552,
				0.9999999403953552
			],
			"translation":[
				2.3363654122476873e-07,
				0.24935497343540192,
				5.736947059631348e-07
			]
		},
		{
			"children":[
				1
			],
			"name":"DEF-Spine",
			"rotation":[
				-0.022289415821433067,
				-1.1177132819284452e-07,
				-2.117066078000107e-09,
				0.9997515678405762
			],
			"scale":[
				1,
				0.9999999403953552,
				1
			],
			"translation":[
				1.1957713752508425e-07,
				0.1833454817533493,
				-8.940696716308594e-08
			]
		},
		{
			"children":[
				2
			],
			"name":"DEF-Hips",
			"rotation":[
				0.006232504267245531,
				0.9809266924858093,
				-0.03190140426158905,
				0.19164101779460907
			],
			"scale":[
				1,
				0.9999998807907104,
				0.9999998807907104
			],
			"translation":[
				-0.02200164645910263,
				0.9244410991668701,
				0.05415964126586914
			]
		},
		{
			"name":"DEF-Neck",
			"rotation":[
				0.03117353469133377,
				0.9683875441551208,
				-0.15956342220306396,
				0.1891912817955017
			],
			"scale":[
				1,
				1,
				0.9999999403953552
			],
			"translation":[
				-0.015753857791423798,
				1.59092378616333,
				0.03877973556518555
			]
		},
		{
			"name":"DEF-Head",
			"rotation":[
				0.00836073700338602,
				0.9805118441581726,
				-0.042794883251190186,
				0.1915600597858429
			],
			"scale":[
				0.9999999403953552,
				1,
				1
			],
			"translation":[
				-0.0028658881783485413,
				1.6920123100280762,
				0.007054805755615234
			]
		},
		{
			"name":"DEF-Shoulder.L",
			"rotation":[
				-0.6981289982795715,
				0.7131943702697754,
				-0.04177170619368553,
				0.0471683144569397
			],
			"scale":[
				0.9999999403953552,
				1,
				1
			],
			"translation":[
				-0.1226467415690422,
				1.5321145057678223,
				-0.013926506042480469
			]
		},
		{
			"name":"DEF-Hand.L",
			"rotation":[
				0.04207777604460716,
				0.006544934120029211,
				0.025394249707460403,
				0.9987701177597046
			],
			"scale":[
				0.9999999403953552,
				1,
				0.9999999403953552
			],
			"translation":[
				-1.0058283805847168e-07,
				0.1864813268184662,
				-2.4586915969848633e-07
			]
		},
		{
			"children":[
				7
			],
			"name":"DEF-Forearm_2.L",
			"rotation":[
				1.3506505638360977e-06,
				1.7229467630386353e-08,
				1.2479722499847412e-07,
				1
			],
			"translation":[
				1.210719347000122e-07,
				0.18648117780685425,
				-1.1920928955078125e-07
			]
		},
		{
			"children":[
				8
			],
			"name":"DEF-Forearm_1.L",
			"rotation":[
				0.08284978568553925,
				0.0007321455632336438,
				0.002850649179890752,
				0.9965577721595764
			],
			"scale":[
				0.9999999403953552,
				0.9999998807907104,
				1
			],
			"translation":[
				5.587935447692871e-08,
				0.17371785640716553,
				3.129243850708008e-07
			]
		},
		{
			"children":[
				9
			],
			"name":"DEF-UpperArm_2.L",
			"rotation":[
				1.3062964399068733e-06,
				-8.973293574854324e-07,
				7.869676323934982e-07,
				1
			],
			"scale":[
				1,
				0.9999999403953552,
				0.9999999403953552
			],
			"translation":[
				5.4016709327697754e-08,
				0.1737179309129715,
				4.917383193969727e-07
			]
		},
		{
			"children":[
				10
			],
			"name":"DEF-UpperArm_1.L",
			"rotation":[
				-0.7144072651863098,
				0.6812283396720886,
				-0.1401195526123047,
				0.07692007720470428
			],
			"scale":[
				1.0000001192092896,
				1.0000001192092896,
				1
			],
			"translation":[
				-0.22912831604480743,
				1.5344486236572266,
				-0.027393341064453125
			]
		},
		{
			"name":"DEF-Finger_Thumb3.L",
			"rotation":[
				0.19613292813301086,
				-0.04075399786233902,
				-0.005705987103283405,
				0.979713499546051
			],
			"scale":[
				0.9999999403953552,
				1.0000001192092896,
				0.9999999403953552
			],
			"translation":[
				-1.341104507446289e-07,
				0.04008185863494873,
				-2.384185791015625e-07
			]
		},
		{
			"children":[
				12
			],
			"name":"DEF-Finger_Thumb2.L",
			"rotation":[
				0.31341174244880676,
				0.019544415175914764,
				0.06485161930322647,
				0.947198748588562
			],
			"scale":[
				0.9999999403953552,
				0.9999999403953552,
				0.9999999403953552
			],
			"translation":[
				1.7881393432617188e-07,
				0.08308591693639755,
				0
			]
		},
		{
			"children":[
				13
			],
			"name":"DEF-Finger_Thumb1.L",
			"rotation":[
				-0.3171870708465576,
				-0.5490742921829224,
				0.6307228803634644,
				0.44732385873794556
			],
			"scale":[
				0.9999999403953552,
				0.9999995231628418,
				0.9999998211860657
			],
			"translation":[
				-0.8896177411079407,
				1.4875411987304688,
				-0.316741943359375
			]
		},
		{
			"name":"DEF-Finger_Index3.L",
			"rotation":[
				0.005295210517942905,
				0.013320048339664936,
				-0.03295190632343292,
				0.9993541836738586
			],
			"scale":[
				1,
				0.9999999403953552,
				1
			],
			"translation":[
				-4.1350722312927246e-07,
				0.029828250408172607,
				-7.450580596923828e-08
			]
		},
		{
			"children":[
				15
			],
			"name":"DEF-Finger_Index2.L",
			"rotation":[
				0.08100129663944244,
				0.04691576585173607,
				-0.028685366734862328,
				0.9951958656311035
			],
			"scale":[
				0.9999998807907104,
				1,
				0.9999999403953552
			],
			"translation":[
				1.4901161193847656e-08,
				0.050628483295440674,
				1.043081283569336e-07
			]
		},
		{
			"children":[
				16
			],
			"name":"DEF-Finger_Index1.L",
			"rotation":[
				0.05540715530514717,
				-0.006337192840874195,
				-0.05467500165104866,
				0.9969456195831299
			],
			"scale":[
				0.9999999403953552,
				0.9999998807907104,
				0.9999998211860657
			],
			"translation":[
				4.470348358154297e-08,
				0.051392607390880585,
				8.195638656616211e-08
			]
		},
		{
			"children":[
				17
			],
			"name":"DEF-Finger_Index_Carpal.L",
			"rotation":[
				0.3559846878051758,
				-0.6555630564689636,
				0.6081214547157288,
				0.27147790789604187
			],
			"scale":[
				1,
				1.000000238418579,
				1
			],
			"translation":[
				-0.9414744973182678,
				1.4889132976531982,
				-0.37400293350219727
			]
		},
		{
			"name":"DEF-Finger_Middle3.L",
			"rotation":[
				0.0482494980096817,
				-0.04285162314772606,
				-0.04961160570383072,
				0.9966817498207092
			],
			"scale":[
				0.9999999403953552,
				0.9999999403953552,
				1
			],
			"translation":[
				-1.6391277313232422e-07,
				0.0369628369808197,
				-5.4016709327697754e-08
			]
		},
		{
			"children":[
				19
			],
			"name":"DEF-Finger_Middle2.L",
			"rotation":[
				0.13794253766536713,
				-0.04977837949991226,
				0.0007646847516298294,
				0.9891882538795471
			],
			"scale":[
				0.9999999403953552,
				1.0000001192092896,
				1.0000001192092896
			],
			"translation":[
				-1.4156103134155273e-07,
				0.051471173763275146,
				-6.891787052154541e-08
			]
		},
		{
			"children":[
				20
			],
			"name":"DEF-Finger_Middle1.L",
			"rotation":[
				-0.07859960943460464,
				-0.02714661881327629,
				-0.046927545219659805,
				0.9954310655593872
			],
			"scale":[
				0.9999999403953552,
				0.9999999403953552,
				1
			],
			"translation":[
				2.384185791015625e-07,
				0.054660916328430176,
				8.940696716308594e-08
			]
		},
		{
			"children":[
				21
			],
			"name":"DEF-Finger_Middle_Carpal.L",
			"rotation":[
				0.32751840353012085,
				-0.5952021479606628,
				0.6661577224731445,
				0.30773380398750305
			],
			"scale":[
				0.9999998807907104,
				0.9999993443489075,
				0.9999999403953552
			],
			"translation":[
				-0.9559453725814819,
				1.4901165962219238,
				-0.3431706428527832
			]
		},
		{
			"name":"DEF-Finger_Ring3.L",
			"rotation":[
				-0.003446490503847599,
				0.00858311913907528,
				0.003926189616322517,
				0.9999495148658752
			],
			"scale":[
				0.9999999403953552,
				1.000000238418579,
				0.9999999403953552
			],
			"translation":[
				-1.4156103134155273e-07,
				0.03378176689147949,
				0
			]
		},
		{
			"children":[
				23
			],
			"name":"DEF-Finger_Ring2.L",
			"rotation":[
				0.14741463959217072,
				0.039855752140283585,
				0.003362132702022791,
				0.9882656931877136
			],
			"scale":[
				1.0000001192092896,
				1,
				1
			],
			"translation":[
				7.450580596923828e-08,
				0.05046842247247696,
				1.4156103134155273e-07
			]
		},
		{
			"children":[
				24
			],
			"name":"DEF-Finger_Ring1.L",
			"rotation":[
				-0.02893662638962269,
				-0.08586294203996658,
				0.017971675843000412,
				0.9957244992256165
			],
			"scale":[
				0.9999998807907104,
				0.9999999403953552,
				0.9999998211860657
			],
			"translation":[
				-4.76837158203125e-07,
				0.04776856303215027,
				-2.2351741790771484e-08
			]
		},
		{
			"children":[
				25
			],
			"name":"DEF-Finger_Ring_Carpal.L",
			"rotation":[
				0.38782835006713867,
				-0.5525155067443848,
				0.6405321359634399,
				0.3661070466041565
			],
			"scale":[
				1,
				1.0000003576278687,
				0.9999999403953552
			],
			"translation":[
				-0.9659848809242249,
				1.4894707202911377,
				-0.32588958740234375
			]
		},
		{
			"name":"DEF-Finger_Pinky3.L",
			"rotation":[
				0.01363392360508442,
				-0.13819152116775513,
				-0.04894360899925232,
				0.9891015291213989
			],
			"scale":[
				0.9999999403953552,
				1.0000001192092896,
				0.9999998807907104
			],
			"translation":[
				4.3958425521850586e-07,
				0.03160494565963745,
				2.980232238769531e-07
			]
		},
		{
			"children":[
				27
			],
			"name":"DEF-Finger_Pinky2.L",
			"rotation":[
				0.16350652277469635,
				0.09109967201948166,
				0.0053378320299088955,
				0.9823126196861267
			],
			"scale":[
				1,
				1,
				0.9999999403953552
			],
			"translation":[
				-3.5762786865234375e-07,
				0.04120047390460968,
				-1.043081283569336e-07
			]
		},
		{
			"children":[
				28
			],
			"name":"DEF-Finger_Pinky1.L",
			"rotation":[
				0.01256343349814415,
				-0.07677716761827469,
				0.0992233157157898,
				0.9920192956924438
			],
			"scale":[
				0.9999998211860657,
				0.9999998807907104,
				0.9999999403953552
			],
			"translation":[
				5.587935447692871e-07,
				0.043283045291900635,
				1.4901161193847656e-08
			]
		},
		{
			"children":[
				29
			],
			"name":"DEF-Finger_Pinky_Carpal.L",
			"rotation":[
				0.4161413609981537,
				-0.5345628261566162,
				0.6108997464179993,
				0.4097200930118561
			],
			"scale":[
				0.9999999403953552,
				0.9999997019767761,
				1
			],
			"translation":[
				-0.9772042632102966,
				1.4857912063598633,
				-0.301727294921875
			]
		},
		{
			"name":"DEF-Shoulder.R",
			"rotation":[
				0.6625170111656189,
				0.678505539894104,
				0.2240542322397232,
				0.224724680185318
			],
			"scale":[
				0.9999995827674866,
				0.9999997615814209,
				1
			],
			"translation":[
				0.0976124107837677,
				1.5321145057678223,
				0.07555150985717773
			]
		},
		{
			"name":"DEF-Hand.R",
			"rotation":[
				0.04207807034254074,
				-0.006544860545545816,
				-0.025394272059202194,
				0.9987701177597046
			],
			"scale":[
				1,
				1.0000001192092896,
				1
			],
			"translation":[
				-1.4156103134155273e-07,
				0.18648108839988708,
				7.450580596923828e-09
			]
		},
		{
			"children":[
				32
			],
			"name":"DEF-Forearm_2.R",
			"rotation":[
				1.1292287354081054e-06,
				3.3527616238870905e-08,
				-1.0197983613124961e-07,
				1
			],
			"scale":[
				0.9999999403953552,
				0.9999999403953552,
				0.9999999403953552
			],
			"translation":[
				-3.725290298461914e-08,
				0.18648141622543335,
				-1.6391277313232422e-07
			]
		},
		{
			"children":[
				33
			],
			"name":"DEF-Forearm_1.R",
			"rotation":[
				0.0828499048948288,
				-0.0007318552234210074,
				-0.002850692253559828,
				0.9965577125549316
			],
			"scale":[
				0.9999999403953552,
				0.9999999403953552,
				1
			],
			"translation":[
				-5.21540641784668e-08,
				0.17371758818626404,
				-1.2665987014770508e-07
			]
		},
		{
			"children":[
				34
			],
			"name":"DEF-UpperArm_2.R",
			"rotation":[
				1.2646196410059929e-06,
				7.441266802743485e-07,
				-7.846392122701218e-07,
				1
			],
			"scale":[
				1.0000001192092896,
				1,
				1
			],
			"translation":[
				-1.9744038581848145e-07,
				0.1737179160118103,
				-4.0978193283081055e-07
			]
		},
		{
			"children":[
				35
			],
			"name":"DEF-UpperArm_1.R",
			"rotation":[
				0.7146134376525879,
				0.6600876450538635,
				0.13906456530094147,
				0.1851295530796051
			],
			"scale":[
				1.0000001192092896,
				1,
				0.9999999403953552
			],
			"translation":[
				0.18331849575042725,
				1.5344486236572266,
				0.14015913009643555
			]
		},
		{
			"name":"DEF-Finger_Thumb3.R",
			"rotation":[
				0.19613292813301086,
				0.04075369983911514,
				0.005705640185624361,
				0.979713499546051
			],
			"scale":[
				0.9999999403953552,
				0.9999999403953552,
				0.9999998807907104
			],
			"translation":[
				-1.1920928955078125e-07,
				0.04008173197507858,
				-1.9371509552001953e-07
			]
		},
		{
			"children":[
				37
			],
			"name":"DEF-Finger_Thumb2.R",
			"rotation":[
				0.31341198086738586,
				-0.019544556736946106,
				-0.06485160440206528,
				0.9471986293792725
			],
			"translation":[
				-2.8312206268310547e-07,
				0.08308578282594681,
				6.556510925292969e-07
			]
		},
		{
			"children":[
				38
			],
			"name":"DEF-Finger_Thumb1.R",
			"rotation":[
				-0.05647922307252884,
				0.34034159779548645,
				-0.7037250399589539,
				0.6210867166519165
			],
			"scale":[
				0.9999998807907104,
				0.9999998807907104,
				0.9999999403953552
			],
			"translation":[
				0.8584746718406677,
				1.4875411987304688,
				0.3934040069580078
			]
		},
		{
			"name":"DEF-Finger_Index3.R",
			"rotation":[
				0.005295540206134319,
				-0.013320092111825943,
				0.03295173868536949,
				0.9993541836738586
			],
			"scale":[
				1,
				0.9999999403953552,
				1.0000001192092896
			],
			"translation":[
				7.264316082000732e-07,
				0.02982810139656067,
				-2.9802322387695312e-08
			]
		},
		{
			"children":[
				40
			],
			"name":"DEF-Finger_Index2.R",
			"rotation":[
				0.08100064098834991,
				-0.04691581428050995,
				0.028685398399829865,
				0.9951959252357483
			],
			"scale":[
				1,
				1.0000001192092896,
				1
			],
			"translation":[
				-3.129243850708008e-07,
				0.05062822997570038,
				-4.470348358154297e-08
			]
		},
		{
			"children":[
				41
			],
			"name":"DEF-Finger_Index1.R",
			"rotation":[
				0.05540738254785538,
				0.006337326020002365,
				0.0546746663749218,
				0.9969456195831299
			],
			"scale":[
				0.9999999403953552,
				1,
				0.9999999403953552
			],
			"translation":[
				-3.2782554626464844e-07,
				0.05139267444610596,
				-1.5273690223693848e-07
			]
		},
		{
			"children":[
				42
			],
			"name":"DEF-Finger_Index_Carpal.R",
			"rotation":[
				0.5586875081062317,
				0.5051829218864441,
				-0.4294241666793823,
				0.4982503056526184
			],
			"scale":[
				1,
				1.000000238418579,
				1
			],
			"translation":[
				0.9355733394622803,
				1.4889132976531982,
				0.38852977752685547
			]
		},
		{
			"name":"DEF-Finger_Middle3.R",
			"rotation":[
				0.04824909195303917,
				0.04285161942243576,
				0.04961077868938446,
				0.996681809425354
			],
			"scale":[
				1.0000001192092896,
				1,
				1
			],
			"translation":[
				5.364418029785156e-07,
				0.036962687969207764,
				1.1920928955078125e-07
			]
		},
		{
			"children":[
				44
			],
			"name":"DEF-Finger_Middle2.R",
			"rotation":[
				0.13794249296188354,
				0.04977812245488167,
				-0.0007633334607817233,
				0.9891882538795471
			],
			"scale":[
				1.0000001192092896,
				1,
				0.9999999403953552
			],
			"translation":[
				-3.203749656677246e-07,
				0.05147095024585724,
				1.9371509552001953e-07
			]
		},
		{
			"children":[
				45
			],
			"name":"DEF-Finger_Middle1.R",
			"rotation":[
				-0.07859963923692703,
				0.027146516367793083,
				0.04692647606134415,
				0.995431125164032
			],
			"translation":[
				5.066394805908203e-07,
				0.05466163158416748,
				1.6763806343078613e-08
			]
		},
		{
			"children":[
				46
			],
			"name":"DEF-Finger_Middle_Carpal.R",
			"rotation":[
				0.5541574954986572,
				0.4356148838996887,
				-0.49390676617622375,
				0.5091220736503601
			],
			"scale":[
				1,
				0.9999998807907104,
				0.9999999403953552
			],
			"translation":[
				0.9244422912597656,
				1.4901165962219238,
				0.4207191467285156
			]
		},
		{
			"name":"DEF-Finger_Ring3.R",
			"rotation":[
				-0.003445880487561226,
				-0.008583161979913712,
				-0.0039270613342523575,
				0.9999495148658752
			],
			"scale":[
				0.9999998211860657,
				1.0000001192092896,
				0.9999999403953552
			],
			"translation":[
				1.1920928955078125e-07,
				0.03378170728683472,
				-2.9802322387695312e-08
			]
		},
		{
			"children":[
				48
			],
			"name":"DEF-Finger_Ring2.R",
			"rotation":[
				0.1474144607782364,
				-0.039855580776929855,
				-0.003362481715157628,
				0.9882657527923584
			],
			"scale":[
				1,
				1.0000001192092896,
				1
			],
			"translation":[
				3.5762786865234375e-07,
				0.05046851933002472,
				-1.7136335372924805e-07
			]
		},
		{
			"children":[
				49
			],
			"name":"DEF-Finger_Ring1.R",
			"rotation":[
				-0.028936633840203285,
				0.08586291968822479,
				-0.01797107420861721,
				0.9957245588302612
			],
			"scale":[
				0.9999999403953552,
				0.9999999403953552,
				0.9999999403953552
			],
			"translation":[
				-4.76837158203125e-07,
				0.04776877164840698,
				9.313225746154785e-10
			]
		},
		{
			"children":[
				50
			],
			"name":"DEF-Finger_Ring_Carpal.R",
			"rotation":[
				0.6003878116607666,
				0.3740975260734558,
				-0.4474669396877289,
				0.5471370816230774
			],
			"scale":[
				1.0000001192092896,
				1.000000238418579,
				0.9999999403953552
			],
			"translation":[
				0.919586181640625,
				1.4894707202911377,
				0.4401054382324219
			]
		},
		{
			"name":"DEF-Finger_Pinky3.R",
			"rotation":[
				0.01363488007336855,
				0.13819168508052826,
				0.04894324019551277,
				0.9891015291213989
			],
			"scale":[
				0.9999999403953552,
				0.9999999403953552,
				0.9999999403953552
			],
			"translation":[
				6.705522537231445e-08,
				0.031604886054992676,
				7.450580596923828e-08
			]
		},
		{
			"children":[
				52
			],
			"name":"DEF-Finger_Pinky2.R",
			"rotation":[
				0.16350597143173218,
				-0.0911000519990921,
				-0.0053367712534964085,
				0.9823126196861267
			],
			"scale":[
				0.9999998807907104,
				0.9999998807907104,
				0.9999998807907104
			],
			"translation":[
				-4.3213367462158203e-07,
				0.04120069742202759,
				-7.450580596923828e-09
			]
		},
		{
			"children":[
				53
			],
			"name":"DEF-Finger_Pinky1.R",
			"rotation":[
				0.012563460506498814,
				0.07677723467350006,
				-0.09922409057617188,
				0.9920191764831543
			],
			"scale":[
				0.9999999403953552,
				1,
				0.9999998807907104
			],
			"translation":[
				5.960464477539062e-07,
				0.043282702565193176,
				2.9802322387695312e-08
			]
		},
		{
			"children":[
				54
			],
			"name":"DEF-Finger_Pinky_Carpal.R",
			"rotation":[
				0.6154664158821106,
				0.3410499691963196,
				-0.409356951713562,
				0.5807865262031555
			],
			"scale":[
				1.0000001192092896,
				1.0000001192092896,
				0.9999999403953552
			],
			"translation":[
				0.9107761383056641,
				1.4857912063598633,
				0.46524715423583984
			]
		},
		{
			"name":"DEF-Toes.L",
			"rotation":[
				-0.13360385596752167,
				-0.0297956932336092,
				0.003203456988558173,
				0.9905816316604614
			],
			"scale":[
				0.9999999403953552,
				0.9999999403953552,
				1
			],
			"translation":[
				-3.3760443329811096e-08,
				0.138077512383461,
				7.12461769580841e-08
			]
		},
		{
			"children":[
				56
			],
			"name":"DEF-Foot.L",
			"rotation":[
				-0.5662540197372437,
				0.09364385902881622,
				0.003849462140351534,
				0.8188848495483398
			],
			"translation":[
				3.3032847568392754e-08,
				0.2044995129108429,
				-1.257285475730896e-08
			]
		},
		{
			"children":[
				57
			],
			"name":"DEF-Knee_2.L",
			"rotation":[
				-1.1543743312358856e-06,
				1.0931398719549179e-07,
				1.5168916434049606e-07,
				1
			],
			"translation":[
				-1.257285475730896e-08,
				0.2044994980096817,
				9.359791874885559e-08
			]
		},
		{
			"children":[
				58
			],
			"name":"DEF-Knee_1.L",
			"rotation":[
				0.07103893905878067,
				-0.03356246277689934,
				0.040639545768499374,
				0.9960800409317017
			],
			"scale":[
				1.0000001192092896,
				1,
				1
			],
			"translation":[
				3.3527612686157227e-08,
				0.2344200611114502,
				3.203749656677246e-07
			]
		},
		{
			"children":[
				59
			],
			"name":"DEF-Thigh_2.L",
			"rotation":[
				1.4901161193847656e-08,
				-2.112938091158867e-08,
				-1.210719347000122e-08,
				1
			],
			"translation":[
				3.993045538663864e-08,
				0.23442009091377258,
				1.9941944628953934e-07
			]
		},
		{
			"children":[
				60
			],
			"name":"DEF-Thigh_1.L",
			"rotation":[
				-0.16089336574077606,
				-0.029783673584461212,
				0.9859462976455688,
				0.03370645269751549
			],
			"scale":[
				1,
				0.9999998211860657,
				0.9999999403953552
			],
			"translation":[
				-0.11368728429079056,
				0.9632444977760315,
				0.010204315185546875
			]
		},
		{
			"name":"DEF-Toes.R",
			"rotation":[
				-0.13360388576984406,
				0.02979564666748047,
				-0.0032034781761467457,
				0.9905816316604614
			],
			"scale":[
				0.9999999403953552,
				1.0000001192092896,
				0.9999998807907104
			],
			"translation":[
				2.6542693376541138e-08,
				0.13807746767997742,
				2.905726432800293e-07
			]
		},
		{
			"children":[
				62
			],
			"name":"DEF-Foot.R",
			"rotation":[
				-0.5662540197372437,
				-0.09364377707242966,
				-0.0038493347819894552,
				0.8188848495483398
			],
			"translation":[
				-1.0040821507573128e-07,
				0.20449957251548767,
				-1.434236764907837e-07
			]
		},
		{
			"children":[
				63
			],
			"name":"DEF-Knee_2.R",
			"rotation":[
				-1.1562369763851166e-06,
				-6.081245373934507e-08,
				-1.755543053150177e-07,
				1
			],
			"translation":[
				-2.4330802261829376e-08,
				0.2044994831085205,
				2.8312206268310547e-07
			]
		},
		{
			"children":[
				64
			],
			"name":"DEF-Knee_1.R",
			"rotation":[
				0.07103893160820007,
				0.03356228768825531,
				-0.04063951596617699,
				0.9960800409317017
			],
			"scale":[
				0.9999999403953552,
				0.9999998807907104,
				1
			],
			"translation":[
				3.6135315895080566e-07,
				0.2344200760126114,
				-2.868473529815674e-07
			]
		},
		{
			"children":[
				65
			],
			"name":"DEF-Thigh_2.R",
			"rotation":[
				-1.6298145055770874e-09,
				-1.862645149230957e-09,
				6.984918754504577e-10,
				1
			],
			"scale":[
				0.9999999403953552,
				1,
				1
			],
			"translation":[
				2.7194619178771973e-07,
				0.2344200760126114,
				7.078051567077637e-08
			]
		},
		{
			"children":[
				66
			],
			"name":"DEF-Thigh_1.R",
			"rotation":[
				0.22201737761497498,
				0.014907561242580414,
				-0.9740046858787537,
				0.04243765398859978
			],
			"scale":[
				1,
				0.9999997615814209,
				0.9999998807907104
			],
			"translation":[
				0.07436269521713257,
				0.9632444977760315,
				0.08659791946411133
			]
		},
		{
			"mesh":0,
			"name":"Player",
			"skin":0
		},
		{
			"children":[
				68,
				0,
				3,
				4,
				5,
				6,
				11,
				14,
				18,
				22,
				26,
				30,
				31,
				36,
				39,
				43,
				47,
				51,
				55,
				61,
				67
			],
			"name":"RIG-Cloud_Human",
			"translation":[
				0.12612080574035645,
				0.0014629364013671875,
				4.472146034240723
			]
		}
	],
	"animations":[
		{
			"channels":[
				{
					"sampler":0,
					"target":{
						"node":0,
						"path":"translation"
					}
				},
				{
					"sampler":1,
					"target":{
						"node":0,
						"path":"rotation"
					}
				},
				{
					"sampler":2,
					"target":{
						"node":0,
						"path":"scale"
					}
				},
				{
					"sampler":3,
					"target":{
						"node":3,
						"path":"translation"
					}
				},
				{
					"sampler":4,
					"target":{
						"node":3,
						"path":"rotation"
					}
				},
				{
					"sampler":5,
					"target":{
						"node":3,
						"path":"scale"
					}
				},
				{
					"sampler":6,
					"target":{
						"node":2,
						"path":"translation"
					}
				},
				{
					"sampler":7,
					"target":{
						"node":2,
						"path":"rotation"
					}
				},
				{
					"sampler":8,
					"target":{
						"node":2,
						"path":"scale"
					}
				},
				{
					"sampler":9,
					"target":{
						"node":1,
						"path":"translation"
					}
				},
				{
					"sampler":10,
					"target":{
						"node":1,
						"path":"rotation"
					}
				},
				{
					"sampler":11,
					"target":{
						"node":1,
						"path":"scale"
					}
				},
				{
					"sampler":12,
					"target":{
						"node":4,
						"path":"translation"
					}
				},
				{
					"sampler":13,
					"target":{
						"node":4,
						"path":"rotation"
					}
				},
				{
					"sampler":14,
					"target":{
						"node":4,
						"path":"scale"
					}
				},
				{
					"sampler":15,
					"target":{
						"node":5,
						"path":"translation"
					}
				},
				{
					"sampler":16,
					"target":{
						"node":5,
						"path":"rotation"
					}
				},
				{
					"sampler":17,
					"target":{
						"node":5,
						"path":"scale"
					}
				},
				{
					"sampler":18,
					"target":{
						"node":6,
						"path":"translation"
					}
				},
				{
					"sampler":19,
					"target":{
						"node":6,
						"path":"rotation"
					}
				},
				{
					"sampler":20,
					"target":{
						"node":6,
						"path":"scale"
					}
				},
				{
					"sampler":21,
					"target":{
						"node":11,
						"path":"translation"
					}
				},
				{
					"sampler":22,
					"target":{
						"node":11,
						"path":"rotation"
					}
				},
				{
					"sampler":23,
					"target":{
						"node":11,
						"path":"scale"
					}
				},
				{
					"sampler":24,
					"target":{
						"node":10,
						"path":"translation"
					}
				},
				{
					"sampler":25,
					"target":{
						"node":10,
						"path":"rotation"
					}
				},
				{
					"sampler":26,
					"target":{
						"node":10,
						"path":"scale"
					}
				},
				{
					"sampler":27,
					"target":{
						"node":9,
						"path":"translation"
					}
				},
				{
					"sampler":28,
					"target":{
						"node":9,
						"path":"rotation"
					}
				},
				{
					"sampler":29,
					"target":{
						"node":9,
						"path":"scale"
					}
				},
				{
					"sampler":30,
					"target":{
						"node":8,
						"path":"translation"
					}
				},
				{
					"sampler":31,
					"target":{
						"node":8,
						"path":"rotation"
					}
				},
				{
					"sampler":32,
					"target":{
						"node":8,
						"path":"scale"
					}
				},
				{
					"sampler":33,
					"target":{
						"node":7,
						"path":"translation"
					}
				},
				{
					"sampler":34,
					"target":{
						"node":7,
						"path":"rotation"
					}
				},
				{
					"sampler":35,
					"target":{
						"node":7,
						"path":"scale"
					}
				},
				{
					"sampler":36,
					"target":{
						"node":14,
						"path":"translation"
					}
				},
				{
					"sampler":37,
					"target":{
						"node":14,
						"path":"rotation"
					}
				},
				{
					"sampler":38,
					"target":{
						"node":14,
						"path":"scale"
					}
				},
				{
					"sampler":39,
					"target":{
						"node":13,
						"path":"translation"
					}
				},
				{
					"sampler":40,
					"target":{
						"node":13,
						"path":"rotation"
					}
				},
				{
					"sampler":41,
					"target":{
						"node":13,
						"path":"scale"
					}
				},
				{
					"sampler":42,
					"target":{
						"node":12,
						"path":"translation"
					}
				},
				{
					"sampler":43,
					"target":{
						"node":12,
						"path":"rotation"
					}
				},
				{
					"sampler":44,
					"target":{
						"node":12,
						"path":"scale"
					}
				},
				{
					"sampler":45,
					"target":{
						"node":18,
						"path":"translation"
					}
				},
				{
					"sampler":46,
					"target":{
						"node":18,
						"path":"rotation"
					}
				},
				{
					"sampler":47,
					"target":{
						"node":18,
						"path":"scale"
					}
				},
				{
					"sampler":48,
					"target":{
						"node":17,
						"path":"translation"
					}
				},
				{
					"sampler":49,
					"target":{
						"node":17,
						"path":"rotation"
					}
				},
				{
					"sampler":50,
					"target":{
						"node":17,
						"path":"scale"
					}
				},
				{
					"sampler":51,
					"target":{
						"node":16,
						"path":"translation"
					}
				},
				{
					"sampler":52,
					"target":{
						"node":16,
						"path":"rotation"
					}
				},
				{
					"sampler":53,
					"target":{
						"node":16,
						"path":"scale"
					}
				},
				{
					"sampler":54,
					"target":{
						"node":15,
						"path":"translation"
					}
				},
				{
					"sampler":55,
					"target":{
						"node":15,
						"path":"rotation"
					}
				},
				{
					"sampler":56,
					"target":{
						"node":15,
						"path":"scale"
					}
				},
				{
					"sampler":57,
					"target":{
						"node":22,
						"path":"translation"
					}
				},
				{
					"sampler":58,
					"target":{
						"node":22,
						"path":"rotation"
					}
				},
				{
					"sampler":59,
					"target":{
						"node":22,
						"path":"scale"
					}
				},
				{
					"sampler":60,
					"target":{
						"node":21,
						"path":"translation"
					}
				},
				{
					"sampler":61,
					"target":{
						"node":21,
						"path":"rotation"
					}
				},
				{
					"sampler":62,
					"target":{
						"node":21,
						"path":"scale"
					}
				},
				{
					"sampler":63,
					"target":{
						"node":20,
						"path":"translation"
					}
				},
				{
					"sampler":64,
					"target":{
						"node":20,
						"path":"rotation"
					}
				},
				{
					"sampler":65,
					"target":{
						"node":20,
						"path":"scale"
					}
				},
				{
					"sampler":66,
					"target":{
						"node":19,
						"path":"translation"
					}
				},
				{
					"sampler":67,
					"target":{
						"node":19,
						"path":"rotation"
					}
				},
				{
					"sampler":68,
					"target":{
						"node":19,
						"path":"scale"
					}
				},
				{
					"sampler":69,
					"target":{
						"node":26,
						"path":"translation"
					}
				},
				{
					"sampler":70,
					"target":{
						"node":26,
						"path":"rotation"
					}
				},
				{
					"sampler":71,
					"target":{
						"node":26,
						"path":"scale"
					}
				},
				{
					"sampler":72,
					"target":{
						"node":25,
						"path":"translation"
					}
				},
				{
					"sampler":73,
					"target":{
						"node":25,
						"path":"rotation"
					}
				},
				{
					"sampler":74,
					"target":{
						"node":25,
						"path":"scale"
					}
				},
				{
					"sampler":75,
					"target":{
						"node":24,
						"path":"translation"
					}
				},
				{
					"sampler":76,
					"target":{
						"node":24,
						"path":"rotation"
					}
				},
				{
					"sampler":77,
					"target":{
						"node":24,
						"path":"scale"
					}
				},
				{
					"sampler":78,
					"target":{
						"node":23,
						"path":"translation"
					}
				},
				{
					"sampler":79,
					"target":{
						"node":23,
						"path":"rotation"
					}
				},
				{
					"sampler":80,
					"target":{
						"node":23,
						"path":"scale"
					}
				},
				{
					"sampler":81,
					"target":{
						"node":30,
						"path":"translation"
					}
				},
				{
					"sampler":82,
					"target":{
						"node":30,
						"path":"rotation"
					}
				},
				{
					"sampler":83,
					"target":{
						"node":30,
						"path":"scale"
					}
				},
				{
					"sampler":84,
					"target":{
						"node":29,
						"path":"translation"
					}
				},
				{
					"sampler":85,
					"target":{
						"node":29,
						"path":"rotation"
					}
				},
				{
					"sampler":86,
					"target":{
						"node":29,
						"path":"scale"
					}
				},
				{
					"sampler":87,
					"target":{
						"node":28,
						"path":"translation"
					}
				},
				{
					"sampler":88,
					"target":{
						"node":28,
						"path":"rotation"
					}
				},
				{
					"sampler":89,
					"target":{
						"node":28,
						"path":"scale"
					}
				},
				{
					"sampler":90,
					"target":{
						"node":27,
						"path":"translation"
					}
				},
				{
					"sampler":91,
					"target":{
						"node":27,
						"path":"rotation"
					}
				},
				{
					"sampler":92,
					"target":{
						"node":27,
						"path":"scale"
					}
				},
				{
					"sampler":93,
					"target":{
						"node":31,
						"path":"translation"
					}
				},
				{
					"sampler":94,
					"target":{
						"node":31,
						"path":"rotation"
					}
				},
				{
					"sampler":95,
					"target":{
						"node":31,
						"path":"scale"
					}
				},
				{
					"sampler":96,
					"target":{
						"node":36,
						"path":"translation"
					}
				},
				{
					"sampler":97,
					"target":{
						"node":36,
						"path":"rotation"
					}
				},
				{
					"sampler":98,
					"target":{
						"node":36,
						"path":"scale"
					}
				},
				{
					"sampler":99,
					"target":{
						"node":35,
						"path":"translation"
					}
				},
				{
					"sampler":100,
					"target":{
						"node":35,
						"path":"rotation"
					}
				},
				{
					"sampler":101,
					"target":{
						"node":35,
						"path":"scale"
					}
				},
				{
					"sampler":102,
					"target":{
						"node":34,
						"path":"translation"
					}
				},
				{
					"sampler":103,
					"target":{
						"node":34,
						"path":"rotation"
					}
				},
				{
					"sampler":104,
					"target":{
						"node":34,
						"path":"scale"
					}
				},
				{
					"sampler":105,
					"target":{
						"node":33,
						"path":"translation"
					}
				},
				{
					"sampler":106,
					"target":{
						"node":33,
						"path":"rotation"
					}
				},
				{
					"sampler":107,
					"target":{
						"node":33,
						"path":"scale"
					}
				},
				{
					"sampler":108,
					"target":{
						"node":32,
						"path":"translation"
					}
				},
				{
					"sampler":109,
					"target":{
						"node":32,
						"path":"rotation"
					}
				},
				{
					"sampler":110,
					"target":{
						"node":32,
						"path":"scale"
					}
				},
				{
					"sampler":111,
					"target":{
						"node":39,
						"path":"translation"
					}
				},
				{
					"sampler":112,
					"target":{
						"node":39,
						"path":"rotation"
					}
				},
				{
					"sampler":113,
					"target":{
						"node":39,
						"path":"scale"
					}
				},
				{
					"sampler":114,
					"target":{
						"node":38,
						"path":"translation"
					}
				},
				{
					"sampler":115,
					"target":{
						"node":38,
						"path":"rotation"
					}
				},
				{
					"sampler":116,
					"target":{
						"node":38,
						"path":"scale"
					}
				},
				{
					"sampler":117,
					"target":{
						"node":37,
						"path":"translation"
					}
				},
				{
					"sampler":118,
					"target":{
						"node":37,
						"path":"rotation"
					}
				},
				{
					"sampler":119,
					"target":{
						"node":37,
						"path":"scale"
					}
				},
				{
					"sampler":120,
					"target":{
						"node":43,
						"path":"translation"
					}
				},
				{
					"sampler":121,
					"target":{
						"node":43,
						"path":"rotation"
					}
				},
				{
					"sampler":122,
					"target":{
						"node":43,
						"path":"scale"
					}
				},
				{
					"sampler":123,
					"target":{
						"node":42,
						"path":"translation"
					}
				},
				{
					"sampler":124,
					"target":{
						"node":42,
						"path":"rotation"
					}
				},
				{
					"sampler":125,
					"target":{
						"node":42,
						"path":"scale"
					}
				},
				{
					"sampler":126,
					"target":{
						"node":41,
						"path":"translation"
					}
				},
				{
					"sampler":127,
					"target":{
						"node":41,
						"path":"rotation"
					}
				},
				{
					"sampler":128,
					"target":{
						"node":41,
						"path":"scale"
					}
				},
				{
					"sampler":129,
					"target":{
						"node":40,
						"path":"translation"
					}
				},
				{
					"sampler":130,
					"target":{
						"node":40,
						"path":"rotation"
					}
				},
				{
					"sampler":131,
					"target":{
						"node":40,
						"path":"scale"
					}
				},
				{
					"sampler":132,
					"target":{
						"node":47,
						"path":"translation"
					}
				},
				{
					"sampler":133,
					"target":{
						"node":47,
						"path":"rotation"
					}
				},
				{
					"sampler":134,
					"target":{
						"node":47,
						"path":"scale"
					}
				},
				{
					"sampler":135,
					"target":{
						"node":46,
						"path":"translation"
					}
				},
				{
					"sampler":136,
					"target":{
						"node":46,
						"path":"rotation"
					}
				},
				{
					"sampler":137,
					"target":{
						"node":46,
						"path":"scale"
					}
				},
				{
					"sampler":138,
					"target":{
						"node":45,
						"path":"translation"
					}
				},
				{
					"sampler":139,
					"target":{
						"node":45,
						"path":"rotation"
					}
				},
				{
					"sampler":140,
					"target":{
						"node":45,
						"path":"scale"
					}
				},
				{
					"sampler":141,
					"target":{
						"node":44,
						"path":"translation"
					}
				},
				{
					"sampler":142,
					"target":{
						"node":44,
						"path":"rotation"
					}
				},
				{
					"sampler":143,
					"target":{
						"node":44,
						"path":"scale"
					}
				},
				{
					"sampler":144,
					"target":{
						"node":51,
						"path":"translation"
					}
				},
				{
					"sampler":145,
					"target":{
						"node":51,
						"path":"rotation"
					}
				},
				{
					"sampler":146,
					"target":{
						"node":51,
						"path":"scale"
					}
				},
				{
					"sampler":147,
					"target":{
						"node":50,
						"path":"translation"
					}
				},
				{
					"sampler":148,
					"target":{
						"node":50,
						"path":"rotation"
					}
				},
				{
					"sampler":149,
					"target":{
						"node":50,
						"path":"scale"
					}
				},
				{
					"sampler":150,
					"target":{
						"node":49,
						"path":"translation"
					}
				},
				{
					"sampler":151,
					"target":{
						"node":49,
						"path":"rotation"
					}
				},
				{
					"sampler":152,
					"target":{
						"node":49,
						"path":"scale"
					}
				},
				{
					"sampler":153,
					"target":{
						"node":48,
						"path":"translation"
					}
				},
				{
					"sampler":154,
					"target":{
						"node":48,
						"path":"rotation"
					}
				},
				{
					"sampler":155,
					"target":{
						"node":48,
						"path":"scale"
					}
				},
				{
					"sampler":156,
					"target":{
						"node":55,
						"path":"translation"
					}
				},
				{
					"sampler":157,
					"target":{
						"node":55,
						"path":"rotation"
					}
				},
				{
					"sampler":158,
					"target":{
						"node":55,
						"path":"scale"
					}
				},
				{
					"sampler":159,
					"target":{
						"node":54,
						"path":"translation"
					}
				},
				{
					"sampler":160,
					"target":{
						"node":54,
						"path":"rotation"
					}
				},
				{
					"sampler":161,
					"target":{
						"node":54,
						"path":"scale"
					}
				},
				{
					"sampler":162,
					"target":{
						"node":53,
						"path":"translation"
					}
				},
				{
					"sampler":163,
					"target":{
						"node":53,
						"path":"rotation"
					}
				},
				{
					"sampler":164,
					"target":{
						"node":53,
						"path":"scale"
					}
				},
				{
					"sampler":165,
					"target":{
						"node":52,
						"path":"translation"
					}
				},
				{
					"sampler":166,
					"target":{
						"node":52,
						"path":"rotation"
					}
				},
				{
					"sampler":167,
					"target":{
						"node":52,
						"path":"scale"
					}
				},
				{
					"sampler":168,
					"target":{
						"node":61,
						"path":"translation"
					}
				},
				{
					"sampler":169,
					"target":{
						"node":61,
						"path":"rotation"
					}
				},
				{
					"sampler":170,
					"target":{
						"node":61,
						"path":"scale"
					}
				},
				{
					"sampler":171,
					"target":{
						"node":60,
						"path":"translation"
					}
				},
				{
					"sampler":172,
					"target":{
						"node":60,
						"path":"rotation"
					}
				},
				{
					"sampler":173,
					"target":{
						"node":60,
						"path":"scale"
					}
				},
				{
					"sampler":174,
					"target":{
						"node":59,
						"path":"translation"
					}
				},
				{
					"sampler":175,
					"target":{
						"node":59,
						"path":"rotation"
					}
				},
				{
					"sampler":176,
					"target":{
						"node":59,
						"path":"scale"
					}
				},
				{
					"sampler":177,
					"target":{
						"node":58,
						"path":"translation"
					}
				},
				{
					"sampler":178,
					"target":{
						"node":58,
						"path":"rotation"
					}
				},
				{
					"sampler":179,
					"target":{
						"node":58,
						"path":"scale"
					}
				},
				{
					"sampler":180,
					"target":{
						"node":57,
						"path":"translation"
					}
				},
				{
					"sampler":181,
					"target":{
						"node":57,
						"path":"rotation"
					}
				},
				{
					"sampler":182,
					"target":{
						"node":57,
						"path":"scale"
					}
				},
				{
					"sampler":183,
					"target":{
						"node":56,
						"path":"translation"
					}
				},
				{
					"sampler":184,
					"target":{
						"node":56,
						"path":"rotation"
					}
				},
				{
					"sampler":185,
					"target":{
						"node":56,
						"path":"scale"
					}
				},
				{
					"sampler":186,
					"target":{
						"node":67,
						"path":"translation"
					}
				},
				{
					"sampler":187,
					"target":{
						"node":67,
						"path":"rotation"
					}
				},
				{
					"sampler":188,
					"target":{
						"node":67,
						"path":"scale"
					}
				},
				{
					"sampler":189,
					"target":{
						"node":66,
						"path":"translation"
					}
				},
				{
					"sampler":190,
					"target":{
						"node":66,
						"path":"rotation"
					}
				},
				{
					"sampler":191,
					"target":{
						"node":66,
						"path":"scale"
					}
				},
				{
					"sampler":192,
					"target":{
						"node":65,
						"path":"translation"
					}
				},
				{
					"sampler":193,
					"target":{
						"node":65,
						"path":"rotation"
					}
				},
				{
					"sampler":194,
					"target":{
						"node":65,
						"path":"scale"
					}
				},
				{
					"sampler":195,
					"target":{
						"node":64,
						"path":"translation"
					}
				},
				{
					"sampler":196,
					"target":{
						"node":64,
						"path":"rotation"
					}
				},
				{
					"sampler":197,
					"target":{
						"node":64,
						"path":"scale"
					}
				},
				{
					"sampler":198,
					"target":{
						"node":63,
						"path":"translation"
					}
				},
				{
					"sampler":199,
					"target":{
						"node":63,
						"path":"rotation"
					}
				},
				{
					"sampler":200,
					"target":{
						"node":63,
						"path":"scale"
					}
				},
				{
					"sampler":201,
					"target":{
						"node":62,
						"path":"translation"
					}
				},
				{
					"sampler":202,
					"target":{
						"node":62,
						"path":"rotation"
					}
				},
				{
					"sampler":203,
					"target":{
						"node":62,
						"path":"scale"
					}
				}
			],
			"name":"NewAction",
			"samplers":[
				{
					"input":7,
					"interpolation":"STEP",
					"output":8
				},
				{
					"input":7,
					"interpolation":"STEP",
					"output":9
				},
				{
					"input":7,
					"interpolation":"STEP",
					"output":10
				},
				{
					"input":7,
					"interpolation":"STEP",
					"output":11
				},
				{
					"input":7,
					"interpolation":"STEP",
					"output":12
				},
				{
					"input":7,
					"interpolation":"STEP",
					"output":13
				},
				{
					"input":7,
					"interpolation":"STEP",
					"output":14
				},
				{
					"input":7,
					"interpolation":"STEP",
					"output":15
				},
				{
					"input":7,
					"interpolation":"STEP",
					"output":16
				},
				{
					"input":7,
					"interpolation":"STEP",
					"output":17
				},
				{
					"input":7,
					"interpolation":"STEP",
					"output":18
				},
				{
					"input":7,
					"interpolation":"STEP",
					"output":19
				},
				{
					"input":7,
					"interpolation":"STEP",
					"output":20
				},
				{
					"input":7,
					"interpolation":"STEP",
					"output":21
				},
				{
					"input":7,
					"interpolation":"STEP",
					"output":22
				},
				{
					"input":7,
					"interpolation":"STEP",
					"output":23
				},
				{
					"input":7,
					"interpolation":"STEP",
					"output":24
				},
				{
					"input":7,
					"interpolation":"STEP",
					"output":25
				},
				{
					"input":7,
					"interpolation":"STEP",
					"output":26
				},
				{
					"input":7,
					"interpolation":"STEP",
					"output":27
				},
				{
					"input":7,
					"interpolation":"STEP",
					"output":28
				},
				{
					"input":7,
					"interpolation":"STEP",
					"output":29
				},
				{
					"input":7,
					"interpolation":"STEP",
					"output":30
				},
				{
					"input":7,
					"interpolation":"STEP",
					"output":31
				},
				{
					"input":7,
					"interpolation":"STEP",
					"output":32
				},
				{
					"input":7,
					"interpolation":"STEP",
					"output":33
				},
				{
					"input":7,
					"interpolation":"STEP",
					"output":34
				},
				{
					"input":7,
					"interpolation":"STEP",
					"output":35
				},
				{
					"input":7,
					"interpolation":"STEP",
					"output":36
				},
				{
					"input":7,
					"interpolation":"STEP",
					"output":37
				},
				{
					"input":7,
					"interpolation":"STEP",
					"output":38
				},
				{
					"input":7,
					"interpolation":"STEP",
					"output":39
				},
				{
					"input":7,
					"interpolation":"STEP",
					"output":40
				},
				{
					"input":7,
					"interpolation":"STEP",
					"output":41
				},
				{
					"input":7,
					"interpolation":"STEP",
					"output":42
				},
				{
					"input":7,
					"interpolation":"STEP",
					"output":43
				},
				{
					"input":7,
					"interpolation":"STEP",
					"output":44
				},
				{
					"input":7,
					"interpolation":"STEP",
					"output":45
				},
				{
					"input":7,
					"interpolation":"STEP",
					"output":46
				},
				{
					"input":7,
					"interpolation":"STEP",
					"output":47
				},
				{
					"input":7,
					"interpolation":"STEP",
					"output":48
				},
				{
					"input":7,
					"interpolation":"STEP",
					"output":49
				},
				{
					"input":7,
					"interpolation":"STEP",
					"output":50
				},
				{
					"input":7,
					"interpolation":"STEP",
					"output":51
				},
				{
					"input":7,
					"interpolation":"STEP",
					"output":52
				},
				{
					"input":7,
					"interpolation":"STEP",
					"output":53
				},
				{
					"input":7,
					"interpolation":"STEP",
					"output":54
				},
				{
					"input":7,
					"interpolation":"STEP",
					"output":55
				},
				{
					"input":7,
					"interpolation":"STEP",
					"output":56
				},
				{
					"input":7,
					"interpolation":"STEP",
					"output":57
				},
				{
					"input":7,
					"interpolation":"STEP",
					"output":58
				},
				{
					"input":7,
					"interpolation":"STEP",
					"output":59
				},
				{
					"input":7,
					"interpolation":"STEP",
					"output":60
				},
				{
					"input":7,
					"interpolation":"STEP",
					"output":61
				},
				{
					"input":7,
					"interpolation":"STEP",
					"output":62
				},
				{
					"input":7,
					"interpolation":"STEP",
					"output":63
				},
				{
					"input":7,
					"interpolation":"STEP",
					"output":64
				},
				{
					"input":7,
					"interpolation":"STEP",
					"output":65
				},
				{
					"input":7,
					"interpolation":"STEP",
					"output":66
				},
				{
					"input":7,
					"interpolation":"STEP",
					"output":67
				},
				{
					"input":7,
					"interpolation":"STEP",
					"output":68
				},
				{
					"input":7,
					"interpolation":"STEP",
					"output":69
				},
				{
					"input":7,
					"interpolation":"STEP",
					"output":70
				},
				{
					"input":7,
					"interpolation":"STEP",
					"output":71
				},
				{
					"input":7,
					"interpolation":"STEP",
					"output":72
				},
				{
					"input":7,
					"interpolation":"STEP",
					"output":73
				},
				{
					"input":7,
					"interpolation":"STEP",
					"output":74
				},
				{
					"input":7,
					"interpolation":"STEP",
					"output":75
				},
				{
					"input":7,
					"interpolation":"STEP",
					"output":76
				},
				{
					"input":7,
					"interpolation":"STEP",
					"output":77
				},
				{
					"input":7,
					"interpolation":"STEP",
					"output":78
				},
				{
					"input":7,
					"interpolation":"STEP",
					"output":79
				},
				{
					"input":7,
					"interpolation":"STEP",
					"output":80
				},
				{
					"input":7,
					"interpolation":"STEP",
					"output":81
				},
				{
					"input":7,
					"interpolation":"STEP",
					"output":82
				},
				{
					"input":7,
					"interpolation":"STEP",
					"output":83
				},
				{
					"input":7,
					"interpolation":"STEP",
					"output":84
				},
				{
					"input":7,
					"interpolation":"STEP",
					"output":85
				},
				{
					"input":7,
					"interpolation":"STEP",
					"output":86
				},
				{
					"input":7,
					"interpolation":"STEP",
					"output":87
				},
				{
					"input":7,
					"interpolation":"STEP",
					"output":88
				},
				{
					"input":7,
					"interpolation":"STEP",
					"output":89
				},
				{
					"input":7,
					"interpolation":"STEP",
					"output":90
				},
				{
					"input":7,
					"interpolation":"STEP",
					"output":91
				},
				{
					"input":7,
					"interpolation":"STEP",
					"output":92
				},
				{
					"input":7,
					"interpolation":"STEP",
					"output":93
				},
				{
					"input":7,
					"interpolation":"STEP",
					"output":94
				},
				{
					"input":7,
					"interpolation":"STEP",
					"output":95
				},
				{
					"input":7,
					"interpolation":"STEP",
					"output":96
				},
				{
					"input":7,
					"interpolation":"STEP",
					"output":97
				},
				{
					"input":7,
					"interpolation":"STEP",
					"output":98
				},
				{
					"input":7,
					"interpolation":"STEP",
					"output":99
				},
				{
					"input":7,
					"interpolation":"STEP",
					"output":100
				},
				{
					"input":7,
					"interpolation":"STEP",
					"output":101
				},
				{
					"input":7,
					"interpolation":"STEP",
					"output":102
				},
				{
					"input":7,
					"interpolation":"STEP",
					"output":103
				},
				{
					"input":7,
					"interpolation":"STEP",
					"output":104
				},
				{
					"input":7,
					"interpolation":"STEP",
					"output":105
				},
				{
					"input":7,
					"interpolation":"STEP",
					"output":106
				},
				{
					"input":7,
					"interpolation":"STEP",
					"output":107
				},
				{
					"input":7,
					"interpolation":"STEP",
					"output":108
				},
				{
					"input":7,
					"interpolation":"STEP",
					"output":109
				},
				{
					"input":7,
					"interpolation":"STEP",
					"output":110
				},
				{
					"input":7,
					"interpolation":"STEP",
					"output":111
				},
				{
					"input":7,
					"interpolation":"STEP",
					"output":112
				},
				{
					"input":7,
					"interpolation":"STEP",
					"output":113
				},
				{
					"input":7,
					"interpolation":"STEP",
					"output":114
				},
				{
					"input":7,
					"interpolation":"STEP",
					"output":115
				},
				{
					"input":7,
					"interpolation":"STEP",
					"output":116
				},
				{
					"input":7,
					"interpolation":"STEP",
					"output":117
				},
				{
					"input":7,
					"interpolation":"STEP",
					"output":118
				},
				{
					"input":7,
					"interpolation":"STEP",
					"output":119
				},
				{
					"input":7,
					"interpolation":"STEP",
					"output":120
				},
				{
					"input":7,
					"interpolation":"STEP",
					"output":121
				},
				{
					"input":7,
					"interpolation":"STEP",
					"output":122
				},
				{
					"input":7,
					"interpolation":"STEP",
					"output":123
				},
				{
					"input":7,
					"interpolation":"STEP",
					"output":124
				},
				{
					"input":7,
					"interpolation":"STEP",
					"output":125
				},
				{
					"input":7,
					"interpolation":"STEP",
					"output":126
				},
				{
					"input":7,
					"interpolation":"STEP",
					"output":127
				},
				{
					"input":7,
					"interpolation":"STEP",
					"output":128
				},
				{
					"input":7,
					"interpolation":"STEP",
					"output":129
				},
				{
					"input":7,
					"interpolation":"STEP",
					"output":130
				},
				{
					"input":7,
					"interpolation":"STEP",
					"output":131
				},
				{
					"input":7,
					"interpolation":"STEP",
					"output":132
				},
				{
					"input":7,
					"interpolation":"STEP",
					"output":133
				},
				{
					"input":7,
					"interpolation":"STEP",
					"output":134
				},
				{
					"input":7,
					"interpolation":"STEP",
					"output":135
				},
				{
					"input":7,
					"interpolation":"STEP",
					"output":136
				},
				{
					"input":7,
					"interpolation":"STEP",
					"output":137
				},
				{
					"input":7,
					"interpolation":"STEP",
					"output":138
				},
				{
					"input":7,
					"interpolation":"STEP",
					"output":139
				},
				{
					"input":7,
					"interpolation":"STEP",
					"output":140
				},
				{
					"input":7,
					"interpolation":"STEP",
					"output":141
				},
				{
					"input":7,
					"interpolation":"STEP",
					"output":142
				},
				{
					"input":7,
					"interpolation":"STEP",
					"output":143
				},
				{
					"input":7,
					"interpolation":"STEP",
					"output":144
				},
				{
					"input":7,
					"interpolation":"STEP",
					"output":145
				},
				{
					"input":7,
					"interpolation":"STEP",
					"output":146
				},
				{
					"input":7,
					"interpolation":"STEP",
					"output":147
				},
				{
					"input":7,
					"interpolation":"STEP",
					"output":148
				},
				{
					"input":7,
					"interpolation":"STEP",
					"output":149
				},
				{
					"input":7,
					"interpolation":"STEP",
					"output":150
				},
				{
					"input":7,
					"interpolation":"STEP",
					"output":151
				},
				{
					"input":7,
					"interpolation":"STEP",
					"output":152
				},
				{
					"input":7,
					"interpolation":"STEP",
					"output":153
				},
				{
					"input":7,
					"interpolation":"STEP",
					"output":154
				},
				{
					"input":7,
					"interpolation":"STEP",
					"output":155
				},
				{
					"input":7,
					"interpolation":"STEP",
					"output":156
				},
				{
					"input":7,
					"interpolation":"STEP",
					"output":157
				},
				{
					"input":7,
					"interpolation":"STEP",
					"output":158
				},
				{
					"input":7,
					"interpolation":"STEP",
					"output":159
				},
				{
					"input":7,
					"interpolation":"STEP",
					"output":160
				},
				{
					"input":7,
					"interpolation":"STEP",
					"output":161
				},
				{
					"input":7,
					"interpolation":"STEP",
					"output":162
				},
				{
					"input":7,
					"interpolation":"STEP",
					"output":163
				},
				{
					"input":7,
					"interpolation":"STEP",
					"output":164
				},
				{
					"input":7,
					"interpolation":"STEP",
					"output":165
				},
				{
					"input":7,
					"interpolation":"STEP",
					"output":166
				},
				{
					"input":7,
					"interpolation":"STEP",
					"output":167
				},
				{
					"input":7,
					"interpolation":"STEP",
					"output":168
				},
				{
					"input":7,
					"interpolation":"STEP",
					"output":169
				},
				{
					"input":7,
					"interpolation":"STEP",
					"output":170
				},
				{
					"input":7,
					"interpolation":"STEP",
					"output":171
				},
				{
					"input":7,
					"interpolation":"STEP",
					"output":172
				},
				{
					"input":7,
					"interpolation":"STEP",
					"output":173
				},
				{
					"input":7,
					"interpolation":"STEP",
					"output":174
				},
				{
					"input":7,
					"interpolation":"STEP",
					"output":175
				},
				{
					"input":7,
					"interpolation":"STEP",
					"output":176
				},
				{
					"input":7,
					"interpolation":"STEP",
					"output":177
				},
				{
					"input":7,
					"interpolation":"STEP",
					"output":178
				},
				{
					"input":7,
					"interpolation":"STEP",
					"output":179
				},
				{
					"input":7,
					"interpolation":"STEP",
					"output":180
				},
				{
					"input":7,
					"interpolation":"STEP",
					"output":181
				},
				{
					"input":7,
					"interpolation":"STEP",
					"output":182
				},
				{
					"input":7,
					"interpolation":"STEP",
					"output":183
				},
				{
					"input":7,
					"interpolation":"STEP",
					"output":184
				},
				{
					"input":7,
					"interpolation":"STEP",
					"output":185
				},
				{
					"input":7,
					"interpolation":"STEP",
					"output":186
				},
				{
					"input":7,
					"interpolation":"STEP",
					"output":187
				},
				{
					"input":7,
					"interpolation":"STEP",
					"output":188
				},
				{
					"input":7,
					"interpolation":"STEP",
					"output":189
				},
				{
					"input":7,
					"interpolation":"STEP",
					"output":190
				},
				{
					"input":7,
					"interpolation":"STEP",
					"output":191
				},
				{
					"input":7,
					"interpolation":"STEP",
					"output":192
				},
				{
					"input":7,
					"interpolation":"STEP",
					"output":193
				},
				{
					"input":7,
					"interpolation":"STEP",
					"output":194
				},
				{
					"input":7,
					"interpolation":"STEP",
					"output":195
				},
				{
					"input":7,
					"interpolation":"STEP",
					"output":196
				},
				{
					"input":7,
					"interpolation":"STEP",
					"output":197
				},
				{
					"input":7,
					"interpolation":"STEP",
					"output":198
				},
				{
					"input":7,
					"interpolation":"STEP",
					"output":199
				},
				{
					"input":7,
					"interpolation":"STEP",
					"output":200
				},
				{
					"input":7,
					"interpolation":"STEP",
					"output":201
				},
				{
					"input":7,
					"interpolation":"STEP",
					"output":202
				},
				{
					"input":7,
					"interpolation":"STEP",
					"output":203
				},
				{
					"input":7,
					"interpolation":"STEP",
					"output":204
				},
				{
					"input":7,
					"interpolation":"STEP",
					"output":31
				},
				{
					"input":7,
					"interpolation":"STEP",
					"output":205
				},
				{
					"input":7,
					"interpolation":"STEP",
					"output":206
				},
				{
					"input":7,
					"interpolation":"STEP",
					"output":207
				},
				{
					"input":7,
					"interpolation":"STEP",
					"output":208
				},
				{
					"input":7,
					"interpolation":"STEP",
					"output":209
				},
				{
					"input":7,
					"interpolation":"STEP",
					"output":210
				}
			]
		}
	],
	"materials":[
		{
			"doubleSided":true,
			"name":"PaintedCharacter",
			"pbrMetallicRoughness":{
				"baseColorTexture":{
					"index":0
				},
				"metallicFactor":0,
				"roughnessFactor":0.5
			}
		}
	],
	"meshes":[
		{
			"name":"Player",
			"primitives":[
				{
					"attributes":{
						"POSITION":0,
						"NORMAL":1,
						"TEXCOORD_0":2,
						"JOINTS_0":3,
						"WEIGHTS_0":4
					},
					"indices":5,
					"material":0
				}
			]
		}
	],
	"textures":[
		{
			"sampler":0,
			"source":0
		}
	],
	"images":[
		{
			"mimeType":"image/png",
			"name":"PaintedCharacter Base Color",
			"uri":"Textures/PaintedCharacter%20Base%20Color.png"
		}
	],
	"skins":[
		{
			"inverseBindMatrices":6,
			"joints":[
				0,
				3,
				2,
				1,
				4,
				5,
				6,
				11,
				10,
				9,
				8,
				7,
				14,
				13,
				12,
				18,
				17,
				16,
				15,
				22,
				21,
				20,
				19,
				26,
				25,
				24,
				23,
				30,
				29,
				28,
				27,
				31,
				36,
				35,
				34,
				33,
				32,
				39,
				38,
				37,
				43,
				42,
				41,
				40,
				47,
				46,
				45,
				44,
				51,
				50,
				49,
				48,
				55,
				54,
				53,
				52,
				61,
				60,
				59,
				58,
				57,
				56,
				67,
				66,
				65,
				64,
				63,
				62
			],
			"name":"RIG-Cloud_Human"
		}
	],
	"accessors":[
		{
			"bufferView":0,
			"componentType":5126,
			"count":13120,
			"max":[
				1.2264180183410645,
				2.0057034492492676,
				4.994697570800781
			],
			"min":[
				-0.9927828311920166,
				0.0014629364013671875,
				4.005124092102051
			],
			"type":"VEC3"
		},
		{
			"bufferView":1,
			"componentType":5126,
			"count":13120,
			"type":"VEC3"
		},
		{
			"bufferView":2,
			"componentType":5126,
			"count":13120,
			"type":"VEC2"
		},
		{
			"bufferView":3,
			"componentType":5121,
			"count":13120,
			"type":"VEC4"
		},
		{
			"bufferView":4,
			"componentType":5126,
			"count":13120,
			"type":"VEC4"
		},
		{
			"bufferView":5,
			"componentType":5123,
			"count":60300,
			"type":"SCALAR"
		},
		{
			"bufferView":6,
			"componentType":5126,
			"count":68,
			"type":"MAT4"
		},
		{
			"bufferView":7,
			"componentType":5126,
			"count":2,
			"max":[
				28.583333333333332
			],
			"min":[
				0.041666666666666664
			],
			"type":"SCALAR"
		},
		{
			"bufferView":8,
			"componentType":5126,
			"count":2,
			"type":"VEC3"
		},
		{
			"bufferView":9,
			"componentType":5126,
			"count":2,
			"type":"VEC4"
		},
		{
			"bufferView":10,
			"componentType":5126,
			"count":2,
			"type":"VEC3"
		},
		{
			"bufferView":11,
			"componentType":5126,
			"count":2,
			"type":"VEC3"
		},
		{
			"bufferView":12,
			"componentType":5126,
			"count":2,
			"type":"VEC4"
		},
		{
			"bufferView":13,
			"componentType":5126,
			"count":2,
			"type":"VEC3"
		},
		{
			"bufferView":14,
			"componentType":5126,
			"count":2,
			"type":"VEC3"
		},
		{
			"bufferView":15,
			"componentType":5126,
			"count":2,
			"type":"VEC4"
		},
		{
			"bufferView":16,
			"componentType":5126,
			"count":2,
			"type":"VEC3"
		},
		{
			"bufferView":17,
			"componentType":5126,
			"count":2,
			"type":"VEC3"
		},
		{
			"bufferView":18,
			"componentType":5126,
			"count":2,
			"type":"VEC4"
		},
		{
			"bufferView":19,
			"componentType":5126,
			"count":2,
			"type":"VEC3"
		},
		{
			"bufferView":20,
			"componentType":5126,
			"count":2,
			"type":"VEC3"
		},
		{
			"bufferView":21,
			"componentType":5126,
			"count":2,
			"type":"VEC4"
		},
		{
			"bufferView":22,
			"componentType":5126,
			"count":2,
			"type":"VEC3"
		},
		{
			"bufferView":23,
			"componentType":5126,
			"count":2,
			"type":"VEC3"
		},
		{
			"bufferView":24,
			"componentType":5126,
			"count":2,
			"type":"VEC4"
		},
		{
			"bufferView":25,
			"componentType":5126,
			"count":2,
			"type":"VEC3"
		},
		{
			"bufferView":26,
			"componentType":5126,
			"count":2,
			"type":"VEC3"
		},
		{
			"bufferView":27,
			"componentType":5126,
			"count":2,
			"type":"VEC4"
		},
		{
			"bufferView":28,
			"componentType":5126,
			"count":2,
			"type":"VEC3"
		},
		{
			"bufferView":29,
			"componentType":5126,
			"count":2,
			"type":"VEC3"
		},
		{
			"bufferView":30,
			"componentType":5126,
			"count":2,
			"type":"VEC4"
		},
		{
			"bufferView":31,
			"componentType":5126,
			"count":2,
			"type":"VEC3"
		},
		{
			"bufferView":32,
			"componentType":5126,
			"count":2,
			"type":"VEC3"
		},
		{
			"bufferView":33,
			"componentType":5126,
			"count":2,
			"type":"VEC4"
		},
		{
			"bufferView":34,
			"componentType":5126,
			"count":2,
			"type":"VEC3"
		},
		{
			"bufferView":35,
			"componentType":5126,
			"count":2,
			"type":"VEC3"
		},
		{
			"bufferView":36,
			"componentType":5126,
			"count":2,
			"type":"VEC4"
		},
		{
			"bufferView":37,
			"componentType":5126,
			"count":2,
			"type":"VEC3"
		},
		{
			"bufferView":38,
			"componentType":5126,
			"count":2,
			"type":"VEC3"
		},
		{
			"bufferView":39,
			"componentType":5126,
			"count":2,
			"type":"VEC4"
		},
		{
			"bufferView":40,
			"componentType":5126,
			"count":2,
			"type":"VEC3"
		},
		{
			"bufferView":41,
			"componentType":5126,
			"count":2,
			"type":"VEC3"
		},
		{
			"bufferView":42,
			"componentType":5126,
			"count":2,
			"type":"VEC4"
		},
		{
			"bufferView":43,
			"componentType":5126,
			"count":2,
			"type":"VEC3"
		},
		{
			"bufferView":44,
			"componentType":5126,
			"count":2,
			"type":"VEC3"
		},
		{
			"bufferView":45,
			"componentType":5126,
			"count":2,
			"type":"VEC4"
		},
		{
			"bufferView":46,
			"componentType":5126,
			"count":2,
			"type":"VEC3"
		},
		{
			"bufferView":47,
			"componentType":5126,
			"count":2,
			"type":"VEC3"
		},
		{
			"bufferView":48,
			"componentType":5126,
			"count":2,
			"type":"VEC4"
		},
		{
			"bufferView":49,
			"componentType":5126,
			"count":2,
			"type":"VEC3"
		},
		{
			"bufferView":50,
			"componentType":5126,
			"count":2,
			"type":"VEC3"
		},
		{
			"bufferView":51,
			"componentType":5126,
			"count":2,
			"type":"VEC4"
		},
		{
			"bufferView":52,
			"componentType":5126,
			"count":2,
			"type":"VEC3"
		},
		{
			"bufferView":53,
			"componentType":5126,
			"count":2,
			"type":"VEC3"
		},
		{
			"bufferView":54,
			"componentType":5126,
			"count":2,
			"type":"VEC4"
		},
		{
			"bufferView":55,
			"componentType":5126,
			"count":2,
			"type":"VEC3"
		},
		{
			"bufferView":56,
			"componentType":5126,
			"count":2,
			"type":"VEC3"
		},
		{
			"bufferView":57,
			"componentType":5126,
			"count":2,
			"type":"VEC4"
		},
		{
			"bufferView":58,
			"componentType":5126,
			"count":2,
			"type":"VEC3"
		},
		{
			"bufferView":59,
			"componentType":5126,
			"count":2,
			"type":"VEC3"
		},
		{
			"bufferView":60,
			"componentType":5126,
			"count":2,
			"type":"VEC4"
		},
		{
			"bufferView":61,
			"componentType":5126,
			"count":2,
			"type":"VEC3"
		},
		{
			"bufferView":62,
			"componentType":5126,
			"count":2,
			"type":"VEC3"
		},
		{
			"bufferView":63,
			"componentType":5126,
			"count":2,
			"type":"VEC4"
		},
		{
			"bufferView":64,
			"componentType":5126,
			"count":2,
			"type":"VEC3"
		},
		{
			"bufferView":65,
			"componentType":5126,
			"count":2,
			"type":"VEC3"
		},
		{
			"bufferView":66,
			"componentType":5126,
			"count":2,
			"type":"VEC4"
		},
		{
			"bufferView":67,
			"componentType":5126,
			"count":2,
			"type":"VEC3"
		},
		{
			"bufferView":68,
			"componentType":5126,
			"count":2,
			"type":"VEC3"
		},
		{
			"bufferView":69,
			"componentType":5126,
			"count":2,
			"type":"VEC4"
		},
		{
			"bufferView":70,
			"componentType":5126,
			"count":2,
			"type":"VEC3"
		},
		{
			"bufferView":71,
			"componentType":5126,
			"count":2,
			"type":"VEC3"
		},
		{
			"bufferView":72,
			"componentType":5126,
			"count":2,
			"type":"VEC4"
		},
		{
			"bufferView":73,
			"componentType":5126,
			"count":2,
			"type":"VEC3"
		},
		{
			"bufferView":74,
			"componentType":5126,
			"count":2,
			"type":"VEC3"
		},
		{
			"bufferView":75,
			"componentType":5126,
			"count":2,
			"type":"VEC4"
		},
		{
			"bufferView":76,
			"componentType":5126,
			"count":2,
			"type":"VEC3"
		},
		{
			"bufferView":77,
			"componentType":5126,
			"count":2,
			"type":"VEC3"
		},
		{
			"bufferView":78,
			"componentType":5126,
			"count":2,
			"type":"VEC4"
		},
		{
			"bufferView":79,
			"componentType":5126,
			"count":2,
			"type":"VEC3"
		},
		{
			"bufferView":80,
			"componentType":5126,
			"count":2,
			"type":"VEC3"
		},
		{
			"bufferView":81,
			"componentType":5126,
			"count":2,
			"type":"VEC4"
		},
		{
			"bufferView":82,
			"componentType":5126,
			"count":2,
			"type":"VEC3"
		},
		{
			"bufferView":83,
			"componentType":5126,
			"count":2,
			"type":"VEC3"
		},
		{
			"bufferView":84,
			"componentType":5126,
			"count":2,
			"type":"VEC4"
		},
		{
			"bufferView":85,
			"componentType":5126,
			"count":2,
			"type":"VEC3"
		},
		{
			"bufferView":86,
			"componentType":5126,
			"count":2,
			"type":"VEC3"
		},
		{
			"bufferView":87,
			"componentType":5126,
			"count":2,
			"type":"VEC4"
		},
		{
			"bufferView":88,
			"componentType":5126,
			"count":2,
			"type":"VEC3"
		},
		{
			"bufferView":89,
			"componentType":5126,
			"count":2,
			"type":"VEC3"
		},
		{
			"bufferView":90,
			"componentType":5126,
			"count":2,
			"type":"VEC4"
		},
		{
			"bufferView":91,
			"componentType":5126,
			"count":2,
			"type":"VEC3"
		},
		{
			"bufferView":92,
			"componentType":5126,
			"count":2,
			"type":"VEC3"
		},
		{
			"bufferView":93,
			"componentType":5126,
			"count":2,
			"type":"VEC4"
		},
		{
			"bufferView":94,
			"componentType":5126,
			"count":2,
			"type":"VEC3"
		},
		{
			"bufferView":95,
			"componentType":5126,
			"count":2,
			"type":"VEC3"
		},
		{
			"bufferView":96,
			"componentType":5126,
			"count":2,
			"type":"VEC4"
		},
		{
			"bufferView":97,
			"componentType":5126,
			"count":2,
			"type":"VEC3"
		},
		{
			"bufferView":98,
			"componentType":5126,
			"count":2,
			"type":"VEC3"
		},
		{
			"bufferView":99,
			"componentType":5126,
			"count":2,
			"type":"VEC4"
		},
		{
			"bufferView":100,
			"componentType":5126,
			"count":2,
			"type":"VEC3"
		},
		{
			"bufferView":101,
			"componentType":5126,
			"count":2,
			"type":"VEC3"
		},
		{
			"bufferView":102,
			"componentType":5126,
			"count":2,
			"type":"VEC4"
		},
		{
			"bufferView":103,
			"componentType":5126,
			"count":2,
			"type":"VEC3"
		},
		{
			"bufferView":104,
			"componentType":5126,
			"count":2,
			"type":"VEC3"
		},
		{
			"bufferView":105,
			"componentType":5126,
			"count":2,
			"type":"VEC4"
		},
		{
			"bufferView":106,
			"componentType":5126,
			"count":2,
			"type":"VEC3"
		},
		{
			"bufferView":107,
			"componentType":5126,
			"count":2,
			"type":"VEC3"
		},
		{
			"bufferView":108,
			"componentType":5126,
			"count":2,
			"type":"VEC4"
		},
		{
			"bufferView":109,
			"componentType":5126,
			"count":2,
			"type":"VEC3"
		},
		{
			"bufferView":110,
			"componentType":5126,
			"count":2,
			"type":"VEC3"
		},
		{
			"bufferView":111,
			"componentType":5126,
			"count":2,
			"type":"VEC4"
		},
		{
			"bufferView":112,
			"componentType":5126,
			"count":2,
			"type":"VEC3"
		},
		{
			"bufferView":113,
			"componentType":5126,
			"count":2,
			"type":"VEC3"
		},
		{
			"bufferView":114,
			"componentType":5126,
			"count":2,
			"type":"VEC4"
		},
		{
			"bufferView":115,
			"componentType":5126,
			"count":2,
			"type":"VEC3"
		},
		{
			"bufferView":116,
			"componentType":5126,
			"count":2,
			"type":"VEC3"
		},
		{
			"bufferView":117,
			"componentType":5126,
			"count":2,
			"type":"VEC4"
		},
		{
			"bufferView":118,
			"componentType":5126,
			"count":2,
			"type":"VEC3"
		},
		{
			"bufferView":119,
			"componentType":5126,
			"count":2,
			"type":"VEC3"
		},
		{
			"bufferView":120,
			"componentType":5126,
			"count":2,
			"type":"VEC4"
		},
		{
			"bufferView":121,
			"componentType":5126,
			"count":2,
			"type":"VEC3"
		},
		{
			"bufferView":122,
			"componentType":5126,
			"count":2,
			"type":"VEC3"
		},
		{
			"bufferView":123,
			"componentType":5126,
			"count":2,
			"type":"VEC4"
		},
		{
			"bufferView":124,
			"componentType":5126,
			"count":2,
			"type":"VEC3"
		},
		{
			"bufferView":125,
			"componentType":5126,
			"count":2,
			"type":"VEC3"
		},
		{
			"bufferView":126,
			"componentType":5126,
			"count":2,
			"type":"VEC4"
		},
		{
			"bufferView":127,
			"componentType":5126,
			"count":2,
			"type":"VEC3"
		},
		{
			"bufferView":128,
			"componentType":5126,
			"count":2,
			"type":"VEC3"
		},
		{
			"bufferView":129,
			"componentType":5126,
			"count":2,
			"type":"VEC4"
		},
		{
			"bufferView":130,
			"componentType":5126,
			"count":2,
			"type":"VEC3"
		},
		{
			"bufferView":131,
			"componentType":5126,
			"count":2,
			"type":"VEC3"
		},
		{
			"bufferView":132,
			"componentType":5126,
			"count":2,
			"type":"VEC4"
		},
		{
			"bufferView":133,
			"componentType":5126,
			"count":2,
			"type":"VEC3"
		},
		{
			"bufferView":134,
			"componentType":5126,
			"count":2,
			"type":"VEC3"
		},
		{
			"bufferView":135,
			"componentType":5126,
			"count":2,
			"type":"VEC4"
		},
		{
			"bufferView":136,
			"componentType":5126,
			"count":2,
			"type":"VEC3"
		},
		{
			"bufferView":137,
			"componentType":5126,
			"count":2,
			"type":"VEC3"
		},
		{
			"bufferView":138,
			"componentType":5126,
			"count":2,
			"type":"VEC4"
		},
		{
			"bufferView":139,
			"componentType":5126,
			"count":2,
			"type":"VEC3"
		},
		{
			"bufferView":140,
			"componentType":5126,
			"count":2,
			"type":"VEC3"
		},
		{
			"bufferView":141,
			"componentType":5126,
			"count":2,
			"type":"VEC4"
		},
		{
			"bufferView":142,
			"componentType":5126,
			"count":2,
			"type":"VEC3"
		},
		{
			"bufferView":143,
			"componentType":5126,
			"count":2,
			"type":"VEC3"
		},
		{
			"bufferView":144,
			"componentType":5126,
			"count":2,
			"type":"VEC4"
		},
		{
			"bufferView":145,
			"componentType":5126,
			"count":2,
			"type":"VEC3"
		},
		{
			"bufferView":146,
			"componentType":5126,
			"count":2,
			"type":"VEC3"
		},
		{
			"bufferView":147,
			"componentType":5126,
			"count":2,
			"type":"VEC4"
		},
		{
			"bufferView":148,
			"componentType":5126,
			"count":2,
			"type":"VEC3"
		},
		{
			"bufferView":149,
			"componentType":5126,
			"count":2,
			"type":"VEC3"
		},
		{
			"bufferView":150,
			"componentType":5126,
			"count":2,
			"type":"VEC4"
		},
		{
			"bufferView":151,
			"componentType":5126,
			"count":2,
			"type":"VEC3"
		},
		{
			"bufferView":152,
			"componentType":5126,
			"count":2,
			"type":"VEC3"
		},
		{
			"bufferView":153,
			"componentType":5126,
			"count":2,
			"type":"VEC4"
		},
		{
			"bufferView":154,
			"componentType":5126,
			"count":2,
			"type":"VEC3"
		},
		{
			"bufferView":155,
			"componentType":5126,
			"count":2,
			"type":"VEC3"
		},
		{
			"bufferView":156,
			"componentType":5126,
			"count":2,
			"type":"VEC4"
		},
		{
			"bufferView":157,
			"componentType":5126,
			"count":2,
			"type":"VEC3"
		},
		{
			"bufferView":158,
			"componentType":5126,
			"count":2,
			"type":"VEC3"
		},
		{
			"bufferView":159,
			"componentType":5126,
			"count":2,
			"type":"VEC4"
		},
		{
			"bufferView":160,
			"componentType":5126,
			"count":2,
			"type":"VEC3"
		},
		{
			"bufferView":161,
			"componentType":5126,
			"count":2,
			"type":"VEC3"
		},
		{
			"bufferView":162,
			"componentType":5126,
			"count":2,
			"type":"VEC4"
		},
		{
			"bufferView":163,
			"componentType":5126,
			"count":2,
			"type":"VEC3"
		},
		{
			"bufferView":164,
			"componentType":5126,
			"count":2,
			"type":"VEC3"
		},
		{
			"bufferView":165,
			"componentType":5126,
			"count":2,
			"type":"VEC4"
		},
		{
			"bufferView":166,
			"componentType":5126,
			"count":2,
			"type":"VEC3"
		},
		{
			"bufferView":167,
			"componentType":5126,
			"count":2,
			"type":"VEC3"
		},
		{
			"bufferView":168,
			"componentType":5126,
			"count":2,
			"type":"VEC4"
		},
		{
			"bufferView":169,
			"componentType":5126,
			"count":2,
			"type":"VEC3"
		},
		{
			"bufferView":170,
			"componentType":5126,
			"count":2,
			"type":"VEC3"
		},
		{
			"bufferView":171,
			"componentType":5126,
			"count":2,
			"type":"VEC4"
		},
		{
			"bufferView":172,
			"componentType":5126,
			"count":2,
			"type":"VEC3"
		},
		{
			"bufferView":173,
			"componentType":5126,
			"count":2,
			"type":"VEC3"
		},
		{
			"bufferView":174,
			"componentType":5126,
			"count":2,
			"type":"VEC4"
		},
		{
			"bufferView":175,
			"componentType":5126,
			"count":2,
			"type":"VEC3"
		},
		{
			"bufferView":176,
			"componentType":5126,
			"count":2,
			"type":"VEC3"
		},
		{
			"bufferView":177,
			"componentType":5126,
			"count":2,
			"type":"VEC4"
		},
		{
			"bufferView":178,
			"componentType":5126,
			"count":2,
			"type":"VEC3"
		},
		{
			"bufferView":179,
			"componentType":5126,
			"count":2,
			"type":"VEC3"
		},
		{
			"bufferView":180,
			"componentType":5126,
			"count":2,
			"type":"VEC4"
		},
		{
			"bufferView":181,
			"componentType":5126,
			"count":2,
			"type":"VEC3"
		},
		{
			"bufferView":182,
			"componentType":5126,
			"count":2,
			"type":"VEC3"
		},
		{
			"bufferView":183,
			"componentType":5126,
			"count":2,
			"type":"VEC4"
		},
		{
			"bufferView":184,
			"componentType":5126,
			"count":2,
			"type":"VEC3"
		},
		{
			"bufferView":185,
			"componentType":5126,
			"count":2,
			"type":"VEC3"
		},
		{
			"bufferView":186,
			"componentType":5126,
			"count":2,
			"type":"VEC4"
		},
		{
			"bufferView":187,
			"componentType":5126,
			"count":2,
			"type":"VEC3"
		},
		{
			"bufferView":188,
			"componentType":5126,
			"count":2,
			"type":"VEC3"
		},
		{
			"bufferView":189,
			"componentType":5126,
			"count":2,
			"type":"VEC4"
		},
		{
			"bufferView":190,
			"componentType":5126,
			"count":2,
			"type":"VEC3"
		},
		{
			"bufferView":191,
			"componentType":5126,
			"count":2,
			"type":"VEC3"
		},
		{
			"bufferView":192,
			"componentType":5126,
			"count":2,
			"type":"VEC4"
		},
		{
			"bufferView":193,
			"componentType":5126,
			"count":2,
			"type":"VEC3"
		},
		{
			"bufferView":194,
			"componentType":5126,
			"count":2,
			"type":"VEC3"
		},
		{
			"bufferView":195,
			"componentType":5126,
			"count":2,
			"type":"VEC4"
		},
		{
			"bufferView":196,
			"componentType":5126,
			"count":2,
			"type":"VEC3"
		},
		{
			"bufferView":197,
			"componentType":5126,
			"count":2,
			"type":"VEC3"
		},
		{
			"bufferView":198,
			"componentType":5126,
			"count":2,
			"type":"VEC4"
		},
		{
			"bufferView":199,
			"componentType":5126,
			"count":2,
			"type":"VEC3"
		},
		{
			"bufferView":200,
			"componentType":5126,
			"count":2,
			"type":"VEC3"
		},
		{
			"bufferView":201,
			"componentType":5126,
			"count":2,
			"type":"VEC4"
		},
		{
			"bufferView":202,
			"componentType":5126,
			"count":2,
			"type":"VEC3"
		},
		{
			"bufferView":203,
			"componentType":5126,
			"count":2,
			"type":"VEC3"
		},
		{
			"bufferView":204,
			"componentType":5126,
			"count":2,
			"type":"VEC4"
		},
		{
			"bufferView":205,
			"componentType":5126,
			"count":2,
			"type":"VEC3"
		},
		{
			"bufferView":206,
			"componentType":5126,
			"count":2,
			"type":"VEC4"
		},
		{
			"bufferView":207,
			"componentType":5126,
			"count":2,
			"type":"VEC3"
		},
		{
			"bufferView":208,
			"componentType":5126,
			"count":2,
			"type":"VEC3"
		},
		{
			"bufferView":209,
			"componentType":5126,
			"count":2,
			"type":"VEC4"
		},
		{
			"bufferView":210,
			"componentType":5126,
			"count":2,
			"type":"VEC3"
		}
	],
	"bufferViews":[
		{
			"buffer":0,
			"byteLength":157440,
			"byteOffset":0,
			"target":34962
		},
		{
			"buffer":0,
			"byteLength":157440,
			"byteOffset":157440,
			"target":34962
		},
		{
			"buffer":0,
			"byteLength":104960,
			"byteOffset":314880,
			"target":34962
		},
		{
			"buffer":0,
			"byteLength":52480,
			"byteOffset":419840,
			"target":34962
		},
		{
			"buffer":0,
			"byteLength":209920,
			"byteOffset":472320,
			"target":34962
		},
		{
			"buffer":0,
			"byteLength":120600,
			"byteOffset":682240,
			"target":34963
		},
		{
			"buffer":0,
			"byteLength":4352,
			"byteOffset":802840
		},
		{
			"buffer":0,
			"byteLength":8,
			"byteOffset":807192
		},
		{
			"buffer":0,
			"byteLength":24,
			"byteOffset":807200
		},
		{
			"buffer":0,
			"byteLength":32,
			"byteOffset":807224
		},
		{
			"buffer":0,
			"byteLength":24,
			"byteOffset":807256
		},
		{
			"buffer":0,
			"byteLength":24,
			"byteOffset":807280
		},
		{
			"buffer":0,
			"byteLength":32,
			"byteOffset":807304
		},
		{
			"buffer":0,
			"byteLength":24,
			"byteOffset":807336
		},
		{
			"buffer":0,
			"byteLength":24,
			"byteOffset":807360
		},
		{
			"buffer":0,
			"byteLength":32,
			"byteOffset":807384
		},
		{
			"buffer":0,
			"byteLength":24,
			"byteOffset":807416
		},
		{
			"buffer":0,
			"byteLength":24,
			"byteOffset":807440
		},
		{
			"buffer":0,
			"byteLength":32,
			"byteOffset":807464
		},
		{
			"buffer":0,
			"byteLength":24,
			"byteOffset":807496
		},
		{
			"buffer":0,
			"byteLength":24,
			"byteOffset":807520
		},
		{
			"buffer":0,
			"byteLength":32,
			"byteOffset":807544
		},
		{
			"buffer":0,
			"byteLength":24,
			"byteOffset":807576
		},
		{
			"buffer":0,
			"byteLength":24,
			"byteOffset":807600
		},
		{
			"buffer":0,
			"byteLength":32,
			"byteOffset":807624
		},
		{
			"buffer":0,
			"byteLength":24,
			"byteOffset":807656
		},
		{
			"buffer":0,
			"byteLength":24,
			"byteOffset":807680
		},
		{
			"buffer":0,
			"byteLength":32,
			"byteOffset":807704
		},
		{
			"buffer":0,
			"byteLength":24,
			"byteOffset":807736
		},
		{
			"buffer":0,
			"byteLength":24,
			"byteOffset":807760
		},
		{
			"buffer":0,
			"byteLength":32,
			"byteOffset":807784
		},
		{
			"buffer":0,
			"byteLength":24,
			"byteOffset":807816
		},
		{
			"buffer":0,
			"byteLength":24,
			"byteOffset":807840
		},
		{
			"buffer":0,
			"byteLength":32,
			"byteOffset":807864
		},
		{
			"buffer":0,
			"byteLength":24,
			"byteOffset":807896
		},
		{
			"buffer":0,
			"byteLength":24,
			"byteOffset":807920
		},
		{
			"buffer":0,
			"byteLength":32,
			"byteOffset":807944
		},
		{
			"buffer":0,
			"byteLength":24,
			"byteOffset":807976
		},
		{
			"buffer":0,
			"byteLength":24,
			"byteOffset":808000
		},
		{
			"buffer":0,
			"byteLength":32,
			"byteOffset":808024
		},
		{
			"buffer":0,
			"byteLength":24,
			"byteOffset":808056
		},
		{
			"buffer":0,
			"byteLength":24,
			"byteOffset":808080
		},
		{
			"buffer":0,
			"byteLength":32,
			"byteOffset":808104
		},
		{
			"buffer":0,
			"byteLength":24,
			"byteOffset":808136
		},
		{
			"buffer":0,
			"byteLength":24,
			"byteOffset":808160
		},
		{
			"buffer":0,
			"byteLength":32,
			"byteOffset":808184
		},
		{
			"buffer":0,
			"byteLength":24,
			"byteOffset":808216
		},
		{
			"buffer":0,
			"byteLength":24,
			"byteOffset":808240
		},
		{
			"buffer":0,
			"byteLength":32,
			"byteOffset":808264
		},
		{
			"buffer":0,
			"byteLength":24,
			"byteOffset":808296
		},
		{
			"buffer":0,
			"byteLength":24,
			"byteOffset":808320
		},
		{
			"buffer":0,
			"byteLength":32,
			"byteOffset":808344
		},
		{
			"buffer":0,
			"byteLength":24,
			"byteOffset":808376
		},
		{
			"buffer":0,
			"byteLength":24,
			"byteOffset":808400
		},
		{
			"buffer":0,
			"byteLength":32,
			"byteOffset":808424
		},
		{
			"buffer":0,
			"byteLength":24,
			"byteOffset":808456
		},
		{
			"buffer":0,
			"byteLength":24,
			"byteOffset":808480
		},
		{
			"buffer":0,
			"byteLength":32,
			"byteOffset":808504
		},
		{
			"buffer":0,
			"byteLength":24,
			"byteOffset":808536
		},
		{
			"buffer":0,
			"byteLength":24,
			"byteOffset":808560
		},
		{
			"buffer":0,
			"byteLength":32,
			"byteOffset":808584
		},
		{
			"buffer":0,
			"byteLength":24,
			"byteOffset":808616
		},
		{
			"buffer":0,
			"byteLength":24,
			"byteOffset":808640
		},
		{
			"buffer":0,
			"byteLength":32,
			"byteOffset":808664
		},
		{
			"buffer":0,
			"byteLength":24,
			"byteOffset":808696
		},
		{
			"buffer":0,
			"byteLength":24,
			"byteOffset":808720
		},
		{
			"buffer":0,
			"byteLength":32,
			"byteOffset":808744
		},
		{
			"buffer":0,
			"byteLength":24,
			"byteOffset":808776
		},
		{
			"buffer":0,
			"byteLength":24,
			"byteOffset":808800
		},
		{
			"buffer":0,
			"byteLength":32,
			"byteOffset":808824
		},
		{
			"buffer":0,
			"byteLength":24,
			"byteOffset":808856
		},
		{
			"buffer":0,
			"byteLength":24,
			"byteOffset":808880
		},
		{
			"buffer":0,
			"byteLength":32,
			"byteOffset":808904
		},
		{
			"buffer":0,
			"byteLength":24,
			"byteOffset":808936
		},
		{
			"buffer":0,
			"byteLength":24,
			"byteOffset":808960
		},
		{
			"buffer":0,
			"byteLength":32,
			"byteOffset":808984
		},
		{
			"buffer":0,
			"byteLength":24,
			"byteOffset":809016
		},
		{
			"buffer":0,
			"byteLength":24,
			"byteOffset":809040
		},
		{
			"buffer":0,
			"byteLength":32,
			"byteOffset":809064
		},
		{
			"buffer":0,
			"byteLength":24,
			"byteOffset":809096
		},
		{
			"buffer":0,
			"byteLength":24,
			"byteOffset":809120
		},
		{
			"buffer":0,
			"byteLength":32,
			"byteOffset":809144
		},
		{
			"buffer":0,
			"byteLength":24,
			"byteOffset":809176
		},
		{
			"buffer":0,
			"byteLength":24,
			"byteOffset":809200
		},
		{
			"buffer":0,
			"byteLength":32,
			"byteOffset":809224
		},
		{
			"buffer":0,
			"byteLength":24,
			"byteOffset":809256
		},
		{
			"buffer":0,
			"byteLength":24,
			"byteOffset":809280
		},
		{
			"buffer":0,
			"byteLength":32,
			"byteOffset":809304
		},
		{
			"buffer":0,
			"byteLength":24,
			"byteOffset":809336
		},
		{
			"buffer":0,
			"byteLength":24,
			"byteOffset":809360
		},
		{
			"buffer":0,
			"byteLength":32,
			"byteOffset":809384
		},
		{
			"buffer":0,
			"byteLength":24,
			"byteOffset":809416
		},
		{
			"buffer":0,
			"byteLength":24,
			"byteOffset":809440
		},
		{
			"buffer":0,
			"byteLength":32,
			"byteOffset":809464
		},
		{
			"buffer":0,
			"byteLength":24,
			"byteOffset":809496
		},
		{
			"buffer":0,
			"byteLength":24,
			"byteOffset":809520
		},
		{
			"buffer":0,
			"byteLength":32,
			"byteOffset":809544
		},
		{
			"buffer":0,
			"byteLength":24,
			"byteOffset":809576
		},
		{
			"buffer":0,
			"byteLength":24,
			"byteOffset":809600
		},
		{
			"buffer":0,
			"byteLength":32,
			"byteOffset":809624
		},
		{
			"buffer":0,
			"byteLength":24,
			"byteOffset":809656
		},
		{
			"buffer":0,
			"byteLength":24,
			"byteOffset":809680
		},
		{
			"buffer":0,
			"byteLength":32,
			"byteOffset":809704
		},
		{
			"buffer":0,
			"byteLength":24,
			"byteOffset":809736
		},
		{
			"buffer":0,
			"byteLength":24,
			"byteOffset":809760
		},
		{
			"buffer":0,
			"byteLength":32,
			"byteOffset":809784
		},
		{
			"buffer":0,
			"byteLength":24,
			"byteOffset":809816
		},
		{
			"buffer":0,
			"byteLength":24,
			"byteOffset":809840
		},
		{
			"buffer":0,
			"byteLength":32,
			"byteOffset":809864
		},
		{
			"buffer":0,
			"byteLength":24,
			"byteOffset":809896
		},
		{
			"buffer":0,
			"byteLength":24,
			"byteOffset":809920
		},
		{
			"buffer":0,
			"byteLength":32,
			"byteOffset":809944
		},
		{
			"buffer":0,
			"byteLength":24,
			"byteOffset":809976
		},
		{
			"buffer":0,
			"byteLength":24,
			"byteOffset":810000
		},
		{
			"buffer":0,
			"byteLength":32,
			"byteOffset":810024
		},
		{
			"buffer":0,
			"byteLength":24,
			"byteOffset":810056
		},
		{
			"buffer":0,
			"byteLength":24,
			"byteOffset":810080
		},
		{
			"buffer":0,
			"byteLength":32,
			"byteOffset":810104
		},
		{
			"buffer":0,
			"byteLength":24,
			"byteOffset":810136
		},
		{
			"buffer":0,
			"byteLength":24,
			"byteOffset":810160
		},
		{
			"buffer":0,
			"byteLength":32,
			"byteOffset":810184
		},
		{
			"buffer":0,
			"byteLength":24,
			"byteOffset":810216
		},
		{
			"buffer":0,
			"byteLength":24,
			"byteOffset":810240
		},
		{
			"buffer":0,
			"byteLength":32,
			"byteOffset":810264
		},
		{
			"buffer":0,
			"byteLength":24,
			"byteOffset":810296
		},
		{
			"buffer":0,
			"byteLength":24,
			"byteOffset":810320
		},
		{
			"buffer":0,
			"byteLength":32,
			"byteOffset":810344
		},
		{
			"buffer":0,
			"byteLength":24,
			"byteOffset":810376
		},
		{
			"buffer":0,
			"byteLength":24,
			"byteOffset":810400
		},
		{
			"buffer":0,
			"byteLength":32,
			"byteOffset":810424
		},
		{
			"buffer":0,
			"byteLength":24,
			"byteOffset":810456
		},
		{
			"buffer":0,
			"byteLength":24,
			"byteOffset":810480
		},
		{
			"buffer":0,
			"byteLength":32,
			"byteOffset":810504
		},
		{
			"buffer":0,
			"byteLength":24,
			"byteOffset":810536
		},
		{
			"buffer":0,
			"byteLength":24,
			"byteOffset":810560
		},
		{
			"buffer":0,
			"byteLength":32,
			"byteOffset":810584
		},
		{
			"buffer":0,
			"byteLength":24,
			"byteOffset":810616
		},
		{
			"buffer":0,
			"byteLength":24,
			"byteOffset":810640
		},
		{
			"buffer":0,
			"byteLength":32,
			"byteOffset":810664
		},
		{
			"buffer":0,
			"byteLength":24,
			"byteOffset":810696
		},
		{
			"buffer":0,
			"byteLength":24,
			"byteOffset":810720
		},
		{
			"buffer":0,
			"byteLength":32,
			"byteOffset":810744
		},
		{
			"buffer":0,
			"byteLength":24,
			"byteOffset":810776
		},
		{
			"buffer":0,
			"byteLength":24,
			"byteOffset":810800
		},
		{
			"buffer":0,
			"byteLength":32,
			"byteOffset":810824
		},
		{
			"buffer":0,
			"byteLength":24,
			"byteOffset":810856
		},
		{
			"buffer":0,
			"byteLength":24,
			"byteOffset":810880
		},
		{
			"buffer":0,
			"byteLength":32,
			"byteOffset":810904
		},
		{
			"buffer":0,
			"byteLength":24,
			"byteOffset":810936
		},
		{
			"buffer":0,
			"byteLength":24,
			"byteOffset":810960
		},
		{
			"buffer":0,
			"byteLength":32,
			"byteOffset":810984
		},
		{
			"buffer":0,
			"byteLength":24,
			"byteOffset":811016
		},
		{
			"buffer":0,
			"byteLength":24,
			"byteOffset":811040
		},
		{
			"buffer":0,
			"byteLength":32,
			"byteOffset":811064
		},
		{
			"buffer":0,
			"byteLength":24,
			"byteOffset":811096
		},
		{
			"buffer":0,
			"byteLength":24,
			"byteOffset":811120
		},
		{
			"buffer":0,
			"byteLength":32,
			"byteOffset":811144
		},
		{
			"buffer":0,
			"byteLength":24,
			"byteOffset":811176
		},
		{
			"buffer":0,
			"byteLength":24,
			"byteOffset":811200
		},
		{
			"buffer":0,
			"byteLength":32,
			"byteOffset":811224
		},
		{
			"buffer":0,
			"byteLength":24,
			"byteOffset":811256
		},
		{
			"buffer":0,
			"byteLength":24,
			"byteOffset":811280
		},
		{
			"buffer":0,
			"byteLength":32,
			"byteOffset":811304
		},
		{
			"buffer":0,
			"byteLength":24,
			"byteOffset":811336
		},
		{
			"buffer":0,
			"byteLength":24,
			"byteOffset":811360
		},
		{
			"buffer":0,
			"byteLength":32,
			"byteOffset":811384
		},
		{
			"buffer":0,
			"byteLength":24,
			"byteOffset":811416
		},
		{
			"buffer":0,
			"byteLength":24,
			"byteOffset":811440
		},
		{
			"buffer":0,
			"byteLength":32,
			"byteOffset":811464
		},
		{
			"buffer":0,
			"byteLength":24,
			"byteOffset":811496
		},
		{
			"buffer":0,
			"byteLength":24,
			"byteOffset":811520
		},
		{
			"buffer":0,
			"byteLength":32,
			"byteOffset":811544
		},
		{
			"buffer":0,
			"byteLength":24,
			"byteOffset":811576
		},
		{
			"buffer":0,
			"byteLength":24,
			"byteOffset":811600
		},
		{
			"buffer":0,
			"byteLength":32,
			"byteOffset":811624
		},
		{
			"buffer":0,
			"byteLength":24,
			"byteOffset":811656
		},
		{
			"buffer":0,
			"byteLength":24,
			"byteOffset":811680
		},
		{
			"buffer":0,
			"byteLength":32,
			"byteOffset":811704
		},
		{
			"buffer":0,
			"byteLength":24,
			"byteOffset":811736
		},
		{
			"buffer":0,
			"byteLength":24,
			"byteOffset":811760
		},
		{
			"buffer":0,
			"byteLength":32,
			"byteOffset":811784
		},
		{
			"buffer":0,
			"byteLength":24,
			"byteOffset":811816
		},
		{
			"buffer":0,
			"byteLength":24,
			"byteOffset":811840
		},
		{
			"buffer":0,
			"byteLength":32,
			"byteOffset":811864
		},
		{
			"buffer":0,
			"byteLength":24,
			"byteOffset":811896
		},
		{
			"buffer":0,
			"byteLength":24,
			"byteOffset":811920
		},
		{
			"buffer":0,
			"byteLength":32,
			"byteOffset":811944
		},
		{
			"buffer":0,
			"byteLength":24,
			"byteOffset":811976
		},
		{
			"buffer":0,
			"byteLength":24,
			"byteOffset":812000
		},
		{
			"buffer":0,
			"byteLength":32,
			"byteOffset":812024
		},
		{
			"buffer":0,
			"byteLength":24,
			"byteOffset":812056
		},
		{
			"buffer":0,
			"byteLength":24,
			"byteOffset":812080
		},
		{
			"buffer":0,
			"byteLength":32,
			"byteOffset":812104
		},
		{
			"buffer":0,
			"byteLength":24,
			"byteOffset":812136
		},
		{
			"buffer":0,
			"byteLength":24,
			"byteOffset":812160
		},
		{
			"buffer":0,
			"byteLength":32,
			"byteOffset":812184
		},
		{
			"buffer":0,
			"byteLength":24,
			"byteOffset":812216
		},
		{
			"buffer":0,
			"byteLength":24,
			"byteOffset":812240
		},
		{
			"buffer":0,
			"byteLength":32,
			"byteOffset":812264
		},
		{
			"buffer":0,
			"byteLength":24,
			"byteOffset":812296
		},
		{
			"buffer":0,
			"byteLength":24,
			"byteOffset":812320
		},
		{
			"buffer":0,
			"byteLength":32,
			"byteOffset":812344
		},
		{
			"buffer":0,
			"byteLength":24,
			"byteOffset":812376
		},
		{
			"buffer":0,
			"byteLength":24,
			"byteOffset":812400
		},
		{
			"buffer":0,
			"byteLength":32,
			"byteOffset":812424
		},
		{
			"buffer":0,
			"byteLength":24,
			"byteOffset":812456
		},
		{
			"buffer":0,
			"byteLength":32,
			"byteOffset":812480
		},
		{
			"buffer":0,
			"byteLength":24,
			"byteOffset":812512
		},
		{
			"buffer":0,
			"byteLength":24,
			"byteOffset":812536
		},
		{
			"buffer":0,
			"byteLength":32,
			"byteOffset":812560
		},
		{
			"buffer":0,
			"byteLength":24,
			"byteOffset":812592
		}
	],
	"samplers":[
		{
			"magFilter":9729,
			"minFilter":9987
		}
	],
	"buffers":[
		{
			"byteLength":812616,
			"uri":"GunGuyWithAnim.bin"
		}
	]
}
