{
	"asset":{
		"generator":"Khronos glTF Blender I/O v5.0.21",
		"version":"2.0"
	},
	"extensionsUsed":[
		"KHR_texture_transform"
	],
	"extensionsRequired":[
		"KHR_texture_transform"
	],
	"scene":0,
	"scenes":[
		{
			"name":"Scene",
			"nodes":[
				0,
				1,
				2,
				3,
				4,
				5,
				6
			]
		}
	],
	"nodes":[
		{
			"mesh":0,
			"name":"DoorRHS",
			"rotation":[
				0,
				-0.11141505837440491,
				0,
				0.9937740564346313
			],
			"translation":[
				-15.554391860961914,
				1.1694612503051758,
				-9.931595802307129
			]
		},
		{
			"mesh":1,
			"name":"DoorLHS",
			"rotation":[
				0,
				-0.11141505837440491,
				0,
				0.9937740564346313
			],
			"translation":[
				-16.14325523376465,
				1.1694612503051758,
				-7.338415145874023
			]
		},
		{
			"mesh":2,
			"name":"Walls",
			"rotation":[
				0,
				-0.11141505837440491,
				0,
				0.9937740564346313
			],
			"translation":[
				-0.980120062828064,
				0,
				4.316181182861328
			]
		},
		{
			"mesh":3,
			"name":"Floor",
			"rotation":[
				0,
				-0.11141505837440491,
				0,
				0.9937740564346313
			],
			"translation":[
				-0.980120062828064,
				0,
				4.316181182861328
			]
		},
		{
			"mesh":4,
			"name":"DoorFrame",
			"rotation":[
				0,
				-0.11141505837440491,
				0,
				0.9937740564346313
			],
			"translation":[
				-0.980120062828064,
				0,
				4.316181182861328
			]
		},
		{
			"mesh":5,
			"name":"WindowRHS",
			"rotation":[
				0,
				-0.11141505837440491,
				0,
				0.9937740564346313
			],
			"translation":[
				-0.980120062828064,
				0,
				4.316181182861328
			]
		},
		{
			"mesh":6,
			"name":"WindowLHS",
			"rotation":[
				0,
				-0.11141505837440491,
				0,
				0.9937740564346313
			],
			"translation":[
				-0.980120062828064,
				0,
				4.316181182861328
			]
		}
	],
	"materials":[
		{
			"doubleSided":true,
			"name":"DoorFrame",
			"normalTexture":{
				"extensions":{
					"KHR_texture_transform":{
						"offset":[
							0,
							-2
						],
						"scale":[
							3,
							3
						]
					}
				},
				"index":0,
				"scale":0.6999998092651367
			},
			"pbrMetallicRoughness":{
				"baseColorTexture":{
					"extensions":{
						"KHR_texture_transform":{
							"offset":[
								0,
								-2
							],
							"scale":[
								3,
								3
							]
						}
					},
					"index":1
				},
				"metallicFactor":0,
				"metallicRoughnessTexture":{
					"extensions":{
						"KHR_texture_transform":{
							"offset":[
								0,
								-2
							],
							"scale":[
								3,
								3
							]
						}
					},
					"index":2
				}
			}
		},
		{
			"alphaMode":"BLEND",
			"doubleSided":true,
			"name":"DoorGlass",
			"pbrMetallicRoughness":{
				"baseColorFactor":[
					0.800000011920929,
					0.800000011920929,
					0.800000011920929,
					0.27881038188934326
				],
				"metallicFactor":0.8587360382080078,
				"roughnessFactor":0.5
			}
		},
		{
			"doubleSided":true,
			"name":"WindowFrame",
			"pbrMetallicRoughness":{
				"baseColorFactor":[
					0,
					0,
					0,
					1
				],
				"roughnessFactor":0.5
			}
		},
		{
			"doubleSided":true,
			"name":"Walls",
			"normalTexture":{
				"extensions":{
					"KHR_texture_transform":{
						"offset":[
							-0.999999999999999,
							1.00000004371139
						],
						"rotation":1.5707963705062866
					}
				},
				"index":3,
				"scale":6.300000190734863
			},
			"pbrMetallicRoughness":{
				"baseColorTexture":{
					"extensions":{
						"KHR_texture_transform":{
							"offset":[
								-0.999999999999999,
								1.00000004371139
							],
							"rotation":1.5707963705062866
						}
					},
					"index":4
				},
				"metallicRoughnessTexture":{
					"extensions":{
						"KHR_texture_transform":{
							"offset":[
								-0.999999999999999,
								1.00000004371139
							],
							"rotation":1.5707963705062866
						}
					},
					"index":5
				}
			}
		},
		{
			"doubleSided":true,
			"name":"Trims",
			"normalTexture":{
				"extensions":{
					"KHR_texture_transform":{
						"offset":[
							0,
							-2
						],
						"scale":[
							3,
							3
						]
					}
				},
				"index":6,
				"scale":0.6999998092651367
			},
			"pbrMetallicRoughness":{
				"baseColorTexture":{
					"extensions":{
						"KHR_texture_transform":{
							"offset":[
								0,
								-2
							],
							"scale":[
								3,
								3
							]
						}
					},
					"index":7
				},
				"metallicFactor":0,
				"metallicRoughnessTexture":{
					"extensions":{
						"KHR_texture_transform":{
							"offset":[
								0,
								-2
							],
							"scale":[
								3,
								3
							]
						}
					},
					"index":8
				}
			}
		},
		{
			"doubleSided":true,
			"name":"Floor",
			"normalTexture":{
				"index":9,
				"scale":10
			},
			"pbrMetallicRoughness":{
				"baseColorTexture":{
					"index":10
				},
				"metallicFactor":0,
				"metallicRoughnessTexture":{
					"index":11
				}
			}
		}
	],
	"meshes":[
		{
			"name":"DoorRHS",
			"primitives":[
				{
					"attributes":{
						"POSITION":0,
						"NORMAL":1,
						"TEXCOORD_0":2
					},
					"indices":3,
					"material":0
				},
				{
					"attributes":{
						"POSITION":4,
						"NORMAL":5,
						"TEXCOORD_0":6
					},
					"indices":7,
					"material":1
				},
				{
					"attributes":{
						"POSITION":8,
						"NORMAL":9,
						"TEXCOORD_0":10
					},
					"indices":11,
					"material":2
				}
			]
		},
		{
			"name":"DoorLHS",
			"primitives":[
				{
					"attributes":{
						"POSITION":12,
						"NORMAL":13,
						"TEXCOORD_0":14
					},
					"indices":15,
					"material":0
				},
				{
					"attributes":{
						"POSITION":16,
						"NORMAL":17,
						"TEXCOORD_0":18
					},
					"indices":19,
					"material":1
				},
				{
					"attributes":{
						"POSITION":20,
						"NORMAL":21,
						"TEXCOORD_0":22
					},
					"indices":23,
					"material":2
				}
			]
		},
		{
			"name":"Walls",
			"primitives":[
				{
					"attributes":{
						"POSITION":24,
						"NORMAL":25,
						"TEXCOORD_0":26
					},
					"indices":27,
					"material":3
				},
				{
					"attributes":{
						"POSITION":28,
						"NORMAL":29,
						"TEXCOORD_0":30
					},
					"indices":31,
					"material":4
				}
			]
		},
		{
			"name":"Floor",
			"primitives":[
				{
					"attributes":{
						"POSITION":32,
						"NORMAL":33,
						"TEXCOORD_0":34
					},
					"indices":35,
					"material":5
				}
			]
		},
		{
			"name":"DoorFrame",
			"primitives":[
				{
					"attributes":{
						"POSITION":36,
						"NORMAL":37,
						"TEXCOORD_0":38
					},
					"indices":39,
					"material":0
				}
			]
		},
		{
			"name":"WindowRHS",
			"primitives":[
				{
					"attributes":{
						"POSITION":40,
						"NORMAL":41,
						"TEXCOORD_0":42
					},
					"indices":43,
					"material":2
				},
				{
					"attributes":{
						"POSITION":44,
						"NORMAL":45,
						"TEXCOORD_0":46
					},
					"indices":47,
					"material":1
				}
			]
		},
		{
			"name":"WindowLHS",
			"primitives":[
				{
					"attributes":{
						"POSITION":48,
						"NORMAL":49,
						"TEXCOORD_0":50
					},
					"indices":51,
					"material":2
				},
				{
					"attributes":{
						"POSITION":52,
						"NORMAL":53,
						"TEXCOORD_0":54
					},
					"indices":47,
					"material":1
				}
			]
		}
	],
	"textures":[
		{
			"sampler":0,
			"source":0
		},
		{
			"sampler":0,
			"source":1
		},
		{
			"sampler":0,
			"source":2
		},
		{
			"sampler":0,
			"source":3
		},
		{
			"sampler":0,
			"source":4
		},
		{
			"sampler":0,
			"source":5
		},
		{
			"sampler":0,
			"source":0
		},
		{
			"sampler":0,
			"source":1
		},
		{
			"sampler":0,
			"source":2
		},
		{
			"sampler":0,
			"source":6
		},
		{
			"sampler":0,
			"source":7
		},
		{
			"sampler":0,
			"source":8
		}
	],
	"images":[
		{
			"mimeType":"image/png",
			"name":"NORMALGLwood_table_worn_2k",
			"uri":"Textures/NORMALGLwood_table_worn_2k.png"
		},
		{
			"mimeType":"image/png",
			"name":"DIFFwood_table_worn_2k",
			"uri":"Textures/DIFFwood_table_worn_2k.png"
		},
		{
			"mimeType":"image/png",
			"name":"ROUGHwood_table_worn_2k",
			"uri":"Textures/ROUGHwood_table_worn_2k.png"
		},
		{
			"mimeType":"image/png",
			"name":"NORMALGLwooden_panels_2k",
			"uri":"Textures/NORMALGLwooden_panels_2k.png"
		},
		{
			"mimeType":"image/png",
			"name":"DIFFwooden_panels_2k",
			"uri":"Textures/DIFFwooden_panels_2k.png"
		},
		{
			"mimeType":"image/png",
			"name":"ROUGHwooden_panels_2k",
			"uri":"Textures/ROUGHwooden_panels_2k.png"
		},
		{
			"mimeType":"image/png",
			"name":"checkered_pavement_tiles_nor_gl_2k",
			"uri":"Textures/checkered_pavement_tiles_nor_gl_2k.png"
		},
		{
			"mimeType":"image/png",
			"name":"checkered_pavement_tiles_diff_2k",
			"uri":"Textures/checkered_pavement_tiles_diff_2k.png"
		},
		{
			"mimeType":"image/png",
			"name":"checkered_pavement_tiles_rough_2k",
			"uri":"Textures/checkered_pavement_tiles_rough_2k.png"
		}
	],
	"accessors":[
		{
			"bufferView":0,
			"componentType":5126,
			"count":76,
			"max":[
				-1.9073486328125e-06,
				1.1694612503051758,
				1.329599380493164
			],
			"min":[
				-0.10486412048339844,
				-1.1694612503051758,
				-9.5367431640625e-07
			],
			"type":"VEC3"
		},
		{
			"bufferView":1,
			"componentType":5126,
			"count":76,
			"type":"VEC3"
		},
		{
			"bufferView":2,
			"componentType":5126,
			"count":76,
			"type":"VEC2"
		},
		{
			"bufferView":3,
			"componentType":5123,
			"count":186,
			"type":"SCALAR"
		},
		{
			"bufferView":4,
			"componentType":5126,
			"count":16,
			"max":[
				-0.052433013916015625,
				0.9493677616119385,
				1.1095056533813477
			],
			"min":[
				-0.052433013916015625,
				-0.9493677020072937,
				0.2200927734375
			],
			"type":"VEC3"
		},
		{
			"bufferView":5,
			"componentType":5126,
			"count":16,
			"type":"VEC3"
		},
		{
			"bufferView":6,
			"componentType":5126,
			"count":16,
			"type":"VEC2"
		},
		{
			"bufferView":7,
			"componentType":5123,
			"count":24,
			"type":"SCALAR"
		},
		{
			"bufferView":8,
			"componentType":5126,
			"count":44,
			"max":[
				-2.33575701713562e-06,
				0.9493677616119385,
				1.1095056533813477
			],
			"min":[
				-0.052433013916015625,
				-0.9493677020072937,
				0.2200927734375
			],
			"type":"VEC3"
		},
		{
			"bufferView":9,
			"componentType":5126,
			"count":44,
			"type":"VEC3"
		},
		{
			"bufferView":10,
			"componentType":5126,
			"count":44,
			"type":"VEC2"
		},
		{
			"bufferView":11,
			"componentType":5123,
			"count":78,
			"type":"SCALAR"
		},
		{
			"bufferView":12,
			"componentType":5126,
			"count":82,
			"max":[
				0,
				1.1694612503051758,
				0
			],
			"min":[
				-0.10486221313476562,
				-1.1694612503051758,
				-1.3296003341674805
			],
			"type":"VEC3"
		},
		{
			"bufferView":13,
			"componentType":5126,
			"count":82,
			"type":"VEC3"
		},
		{
			"bufferView":14,
			"componentType":5126,
			"count":82,
			"type":"VEC2"
		},
		{
			"bufferView":15,
			"componentType":5123,
			"count":192,
			"type":"SCALAR"
		},
		{
			"bufferView":16,
			"componentType":5126,
			"count":20,
			"max":[
				-4.954636096954346e-07,
				0.9493677616119385,
				-0.2200937271118164
			],
			"min":[
				-0.05243110656738281,
				-0.9493677020072937,
				-1.109506607055664
			],
			"type":"VEC3"
		},
		{
			"bufferView":17,
			"componentType":5126,
			"count":20,
			"type":"VEC3"
		},
		{
			"bufferView":18,
			"componentType":5126,
			"count":20,
			"type":"VEC2"
		},
		{
			"bufferView":19,
			"componentType":5123,
			"count":30,
			"type":"SCALAR"
		},
		{
			"bufferView":20,
			"componentType":5126,
			"count":40,
			"max":[
				-4.954636096954346e-07,
				0.9493677616119385,
				-0.2200937271118164
			],
			"min":[
				-0.05243110656738281,
				-0.9493677020072937,
				-1.109506607055664
			],
			"type":"VEC3"
		},
		{
			"bufferView":21,
			"componentType":5126,
			"count":40,
			"type":"VEC3"
		},
		{
			"bufferView":22,
			"componentType":5126,
			"count":40,
			"type":"VEC2"
		},
		{
			"bufferView":23,
			"componentType":5123,
			"count":72,
			"type":"SCALAR"
		},
		{
			"bufferView":24,
			"componentType":5126,
			"count":84,
			"max":[
				45.36748504638672,
				40,
				36.160247802734375
			],
			"min":[
				-17.367511749267578,
				0.4050062894821167,
				-18.240304946899414
			],
			"type":"VEC3"
		},
		{
			"bufferView":25,
			"componentType":5126,
			"count":84,
			"type":"VEC3"
		},
		{
			"bufferView":26,
			"componentType":5126,
			"count":84,
			"type":"VEC2"
		},
		{
			"bufferView":27,
			"componentType":5123,
			"count":273,
			"type":"SCALAR"
		},
		{
			"bufferView":28,
			"componentType":5126,
			"count":141,
			"max":[
				45.36748504638672,
				0.4050063490867615,
				36.160247802734375
			],
			"min":[
				-17.367511749267578,
				0,
				-18.240304946899414
			],
			"type":"VEC3"
		},
		{
			"bufferView":29,
			"componentType":5126,
			"count":141,
			"type":"VEC3"
		},
		{
			"bufferView":30,
			"componentType":5126,
			"count":141,
			"type":"VEC2"
		},
		{
			"bufferView":31,
			"componentType":5123,
			"count":216,
			"type":"SCALAR"
		},
		{
			"bufferView":32,
			"componentType":5126,
			"count":4,
			"max":[
				45.36750793457031,
				0,
				36.16024398803711
			],
			"min":[
				-17.367511749267578,
				0,
				-18.20474624633789
			],
			"type":"VEC3"
		},
		{
			"bufferView":33,
			"componentType":5126,
			"count":4,
			"type":"VEC3"
		},
		{
			"bufferView":34,
			"componentType":5126,
			"count":4,
			"type":"VEC2"
		},
		{
			"bufferView":35,
			"componentType":5123,
			"count":6,
			"type":"SCALAR"
		},
		{
			"bufferView":36,
			"componentType":5126,
			"count":88,
			"max":[
				-17.220081329345703,
				2.5272274017333984,
				-7.845808982849121
			],
			"min":[
				-17.367511749267578,
				0,
				-10.855138778686523
			],
			"type":"VEC3"
		},
		{
			"bufferView":37,
			"componentType":5126,
			"count":88,
			"type":"VEC3"
		},
		{
			"bufferView":38,
			"componentType":5126,
			"count":88,
			"type":"VEC2"
		},
		{
			"bufferView":39,
			"componentType":5123,
			"count":210,
			"type":"SCALAR"
		},
		{
			"bufferView":40,
			"componentType":5126,
			"count":100,
			"max":[
				-17.33107566833496,
				6.646701812744141,
				-13.545689582824707
			],
			"min":[
				-17.367511749267578,
				2.348129987716675,
				-15.514195442199707
			],
			"type":"VEC3"
		},
		{
			"bufferView":41,
			"componentType":5126,
			"count":100,
			"type":"VEC3"
		},
		{
			"bufferView":42,
			"componentType":5126,
			"count":100,
			"type":"VEC2"
		},
		{
			"bufferView":43,
			"componentType":5123,
			"count":174,
			"type":"SCALAR"
		},
		{
			"bufferView":44,
			"componentType":5126,
			"count":20,
			"max":[
				-17.367511749267578,
				6.646701812744141,
				-13.545689582824707
			],
			"min":[
				-17.367511749267578,
				2.348129987716675,
				-15.514195442199707
			],
			"type":"VEC3"
		},
		{
			"bufferView":45,
			"componentType":5126,
			"count":20,
			"type":"VEC3"
		},
		{
			"bufferView":46,
			"componentType":5126,
			"count":20,
			"type":"VEC2"
		},
		{
			"bufferView":47,
			"componentType":5123,
			"count":24,
			"type":"SCALAR"
		},
		{
			"bufferView":48,
			"componentType":5126,
			"count":100,
			"max":[
				-17.31751251220703,
				6.494987487792969,
				-2.945218801498413
			],
			"min":[
				-17.367511749267578,
				2.350250005722046,
				-4.61453914642334
			],
			"type":"VEC3"
		},
		{
			"bufferView":49,
			"componentType":5126,
			"count":100,
			"type":"VEC3"
		},
		{
			"bufferView":50,
			"componentType":5126,
			"count":100,
			"type":"VEC2"
		},
		{
			"bufferView":51,
			"componentType":5123,
			"count":174,
			"type":"SCALAR"
		},
		{
			"bufferView":52,
			"componentType":5126,
			"count":20,
			"max":[
				-17.367511749267578,
				6.494987487792969,
				-2.945218801498413
			],
			"min":[
				-17.367511749267578,
				2.350250005722046,
				-4.61453914642334
			],
			"type":"VEC3"
		},
		{
			"bufferView":53,
			"componentType":5126,
			"count":20,
			"type":"VEC3"
		},
		{
			"bufferView":54,
			"componentType":5126,
			"count":20,
			"type":"VEC2"
		}
	],
	"bufferViews":[
		{
			"buffer":0,
			"byteLength":912,
			"byteOffset":0,
			"target":34962
		},
		{
			"buffer":0,
			"byteLength":912,
			"byteOffset":912,
			"target":34962
		},
		{
			"buffer":0,
			"byteLength":608,
			"byteOffset":1824,
			"target":34962
		},
		{
			"buffer":0,
			"byteLength":372,
			"byteOffset":2432,
			"target":34963
		},
		{
			"buffer":0,
			"byteLength":192,
			"byteOffset":2804,
			"target":34962
		},
		{
			"buffer":0,
			"byteLength":192,
			"byteOffset":2996,
			"target":34962
		},
		{
			"buffer":0,
			"byteLength":128,
			"byteOffset":3188,
			"target":34962
		},
		{
			"buffer":0,
			"byteLength":48,
			"byteOffset":3316,
			"target":34963
		},
		{
			"buffer":0,
			"byteLength":528,
			"byteOffset":3364,
			"target":34962
		},
		{
			"buffer":0,
			"byteLength":528,
			"byteOffset":3892,
			"target":34962
		},
		{
			"buffer":0,
			"byteLength":352,
			"byteOffset":4420,
			"target":34962
		},
		{
			"buffer":0,
			"byteLength":156,
			"byteOffset":4772,
			"target":34963
		},
		{
			"buffer":0,
			"byteLength":984,
			"byteOffset":4928,
			"target":34962
		},
		{
			"buffer":0,
			"byteLength":984,
			"byteOffset":5912,
			"target":34962
		},
		{
			"buffer":0,
			"byteLength":656,
			"byteOffset":6896,
			"target":34962
		},
		{
			"buffer":0,
			"byteLength":384,
			"byteOffset":7552,
			"target":34963
		},
		{
			"buffer":0,
			"byteLength":240,
			"byteOffset":7936,
			"target":34962
		},
		{
			"buffer":0,
			"byteLength":240,
			"byteOffset":8176,
			"target":34962
		},
		{
			"buffer":0,
			"byteLength":160,
			"byteOffset":8416,
			"target":34962
		},
		{
			"buffer":0,
			"byteLength":60,
			"byteOffset":8576,
			"target":34963
		},
		{
			"buffer":0,
			"byteLength":480,
			"byteOffset":8636,
			"target":34962
		},
		{
			"buffer":0,
			"byteLength":480,
			"byteOffset":9116,
			"target":34962
		},
		{
			"buffer":0,
			"byteLength":320,
			"byteOffset":9596,
			"target":34962
		},
		{
			"buffer":0,
			"byteLength":144,
			"byteOffset":9916,
			"target":34963
		},
		{
			"buffer":0,
			"byteLength":1008,
			"byteOffset":10060,
			"target":34962
		},
		{
			"buffer":0,
			"byteLength":1008,
			"byteOffset":11068,
			"target":34962
		},
		{
			"buffer":0,
			"byteLength":672,
			"byteOffset":12076,
			"target":34962
		},
		{
			"buffer":0,
			"byteLength":546,
			"byteOffset":12748,
			"target":34963
		},
		{
			"buffer":0,
			"byteLength":1692,
			"byteOffset":13296,
			"target":34962
		},
		{
			"buffer":0,
			"byteLength":1692,
			"byteOffset":14988,
			"target":34962
		},
		{
			"buffer":0,
			"byteLength":1128,
			"byteOffset":16680,
			"target":34962
		},
		{
			"buffer":0,
			"byteLength":432,
			"byteOffset":17808,
			"target":34963
		},
		{
			"buffer":0,
			"byteLength":48,
			"byteOffset":18240,
			"target":34962
		},
		{
			"buffer":0,
			"byteLength":48,
			"byteOffset":18288,
			"target":34962
		},
		{
			"buffer":0,
			"byteLength":32,
			"byteOffset":18336,
			"target":34962
		},
		{
			"buffer":0,
			"byteLength":12,
			"byteOffset":18368,
			"target":34963
		},
		{
			"buffer":0,
			"byteLength":1056,
			"byteOffset":18380,
			"target":34962
		},
		{
			"buffer":0,
			"byteLength":1056,
			"byteOffset":19436,
			"target":34962
		},
		{
			"buffer":0,
			"byteLength":704,
			"byteOffset":20492,
			"target":34962
		},
		{
			"buffer":0,
			"byteLength":420,
			"byteOffset":21196,
			"target":34963
		},
		{
			"buffer":0,
			"byteLength":1200,
			"byteOffset":21616,
			"target":34962
		},
		{
			"buffer":0,
			"byteLength":1200,
			"byteOffset":22816,
			"target":34962
		},
		{
			"buffer":0,
			"byteLength":800,
			"byteOffset":24016,
			"target":34962
		},
		{
			"buffer":0,
			"byteLength":348,
			"byteOffset":24816,
			"target":34963
		},
		{
			"buffer":0,
			"byteLength":240,
			"byteOffset":25164,
			"target":34962
		},
		{
			"buffer":0,
			"byteLength":240,
			"byteOffset":25404,
			"target":34962
		},
		{
			"buffer":0,
			"byteLength":160,
			"byteOffset":25644,
			"target":34962
		},
		{
			"buffer":0,
			"byteLength":48,
			"byteOffset":25804,
			"target":34963
		},
		{
			"buffer":0,
			"byteLength":1200,
			"byteOffset":25852,
			"target":34962
		},
		{
			"buffer":0,
			"byteLength":1200,
			"byteOffset":27052,
			"target":34962
		},
		{
			"buffer":0,
			"byteLength":800,
			"byteOffset":28252,
			"target":34962
		},
		{
			"buffer":0,
			"byteLength":348,
			"byteOffset":29052,
			"target":34963
		},
		{
			"buffer":0,
			"byteLength":240,
			"byteOffset":29400,
			"target":34962
		},
		{
			"buffer":0,
			"byteLength":240,
			"byteOffset":29640,
			"target":34962
		},
		{
			"buffer":0,
			"byteLength":160,
			"byteOffset":29880,
			"target":34962
		}
	],
	"samplers":[
		{
			"magFilter":9729,
			"minFilter":9987
		}
	],
	"buffers":[
		{
			"byteLength":30040,
			"uri":"MainMenuV2.bin"
		}
	]
}
